<?xml version="1.0" standalone="no"?>
<!DOCTYPE svg PUBLIC "-//W3C//DTD SVG 20010904//EN"
 "http://www.w3.org/TR/2001/REC-SVG-20010904/DTD/svg10.dtd">
<svg version="1.0" xmlns="http://www.w3.org/2000/svg"
 width="300.000000pt" height="300.000000pt" viewBox="0 0 300.000000 300.000000"
 preserveAspectRatio="xMidYMid meet">
<metadata>
Created by potrace 1.10, written by Peter Selinger 2001-2011
</metadata>
<g transform="translate(0.000000,300.000000) scale(0.100000,-0.100000)"
fill="#000000" stroke="none">
<path d="M24 2978 c3 -13 6 -30 7 -38 0 -10 3 -8 9 5 14 32 11 55 -6 55 -12 0
-15 -6 -10 -22z"/>
<path d="M100 2951 l0 -49 -46 10 c-44 10 -70 4 -48 -10 6 -4 14 -37 17 -74 5
-56 4 -68 -8 -68 -10 0 -15 -10 -15 -27 1 -23 2 -25 10 -12 11 18 31 17 152
-6 l27 -5 3 72 c2 39 8 73 13 75 23 7 34 -16 36 -77 2 -61 1 -65 -19 -63 -12
2 -22 -1 -22 -6 0 -5 21 -11 48 -14 50 -6 71 0 34 10 -20 5 -22 12 -22 70 0
61 1 64 23 61 20 -3 22 -9 25 -67 3 -69 16 -91 56 -91 14 0 28 -4 31 -10 3 -5
12 -10 18 -10 7 1 3 8 -8 18 -15 13 -19 27 -17 57 4 71 10 87 30 76 14 -7 17
-21 15 -73 -1 -35 2 -70 7 -78 5 -8 10 18 12 69 2 46 1 86 -2 90 -5 7 -141 42
-222 56 -38 7 -38 7 -38 57 0 46 2 49 23 46 18 -2 23 -10 25 -43 5 -59 22 -69
22 -12 0 51 1 52 31 37 13 -8 19 -21 19 -45 0 -19 4 -35 9 -35 5 0 8 15 7 33
-1 29 2 32 26 32 14 -1 24 3 22 7 -3 4 -14 8 -25 8 -12 0 -19 7 -19 20 0 11
-4 20 -10 20 -5 0 -10 -7 -10 -16 0 -11 -6 -14 -22 -8 -13 4 -25 9 -28 13 -3
3 -30 7 -60 9 -30 1 -50 -1 -44 -5 15 -10 23 -103 9 -103 -44 1 -52 11 -47 61
3 32 1 49 -7 49 -7 0 -11 -19 -11 -49z m-2 -139 c2 -39 1 -72 -2 -72 -3 0 -16
4 -30 10 -22 8 -26 16 -26 49 0 55 16 93 38 89 14 -3 18 -16 20 -76z m72 -13
l0 -71 -27 7 c-16 4 -28 7 -29 8 -1 1 1 30 4 65 4 57 6 62 28 62 23 0 24 -3
24 -71z m196 19 c7 -11 6 -119 0 -126 -2 -1 -11 0 -20 4 -22 8 -24 134 -2 134
8 0 18 -5 22 -12z"/>
<path d="M399 2974 c12 -15 21 -33 21 -41 0 -8 11 -29 26 -45 14 -17 28 -44
31 -60 3 -16 11 -27 17 -25 14 5 9 57 -7 76 -9 11 -9 15 1 18 6 3 12 11 12 19
0 9 4 12 10 9 5 -3 19 0 31 8 38 27 1 28 -50 2 -32 -16 -52 -21 -56 -14 -4 6
-5 11 -4 13 2 1 19 14 37 29 19 15 38 25 42 22 5 -3 11 -1 15 5 4 6 -7 9 -29
8 -21 -2 -36 -8 -36 -15 0 -7 -7 -13 -15 -13 -8 0 -15 5 -15 11 0 5 5 7 10 4
6 -3 10 -1 10 4 0 6 -16 11 -36 11 l-35 0 20 -26z"/>
<path d="M550 2987 c0 -15 20 -37 33 -37 5 0 4 7 -4 16 -10 13 -10 17 2 25 11
7 9 9 -8 9 -13 0 -23 -6 -23 -13z"/>
<path d="M704 2915 c0 -49 1 -71 3 -48 2 23 2 64 0 90 -2 26 -3 8 -3 -42z"/>
<path d="M741 2948 c0 -28 1 -49 3 -47 8 8 13 99 6 99 -4 0 -8 -23 -9 -52z"/>
<path d="M1590 2900 c0 -57 2 -101 6 -98 7 7 7 189 -1 196 -3 3 -5 -41 -5 -98z"/>
<path d="M1045 2956 c-35 -16 -60 -38 -84 -72 -39 -55 -51 -65 -65 -57 -5 3
-6 1 -2 -6 4 -6 12 -9 17 -6 12 8 12 3 -6 -38 -8 -20 -13 -50 -11 -68 4 -37
-14 -61 -41 -54 -10 3 -6 -1 9 -8 22 -10 25 -16 16 -25 -9 -9 -8 -12 5 -12 20
0 23 -16 5 -23 -7 -2 -29 -2 -48 0 -34 4 -34 4 -11 -9 13 -7 23 -16 22 -20 0
-5 -1 -15 -1 -23 0 -10 -8 -13 -27 -11 -16 2 -22 1 -15 -1 17 -6 15 -28 -4
-47 -8 -9 -12 -16 -7 -16 4 0 1 -5 -7 -10 -12 -8 -12 -10 -1 -10 11 0 11 -3 1
-14 -6 -8 -18 -12 -26 -9 -8 3 -14 0 -14 -5 0 -6 17 -14 38 -18 20 -4 30 -9
22 -12 -8 -3 -20 -12 -27 -21 -8 -11 -12 -12 -13 -3 0 8 -20 12 -66 12 -48 0
-65 -3 -61 -12 4 -14 24 -15 75 -4 21 5 32 4 32 -3 0 -6 9 -11 20 -11 11 0 20
-7 20 -15 0 -8 -5 -15 -11 -15 -6 0 -9 -9 -6 -20 3 -13 1 -18 -6 -13 -6 4 -8
-1 -5 -14 3 -11 1 -27 -3 -36 -6 -10 -5 -18 1 -22 6 -4 9 -1 8 6 -2 6 2 13 9
16 14 5 9 -32 -7 -51 -5 -7 -7 -16 -3 -19 11 -12 10 -61 -1 -76 -8 -11 -8 -13
2 -7 17 10 16 -23 -3 -67 -13 -31 -13 -36 1 -48 13 -10 15 -25 10 -64 -4 -34
-2 -45 4 -35 8 12 10 9 10 -12 0 -30 -9 -35 -29 -15 -10 10 -11 9 -6 -5 4 -10
13 -18 20 -18 20 0 23 -33 5 -47 -13 -11 -13 -12 3 -13 15 0 16 -3 7 -20 -6
-11 -8 -25 -5 -30 3 -5 1 -12 -5 -15 -8 -5 -7 -11 1 -21 10 -12 3 -14 -40 -14
-29 0 -61 -4 -71 -10 -15 -8 -20 -5 -29 22 -6 17 -11 43 -11 58 0 37 -15 82
-57 167 -20 39 -32 76 -28 82 3 7 19 -15 37 -49 16 -34 34 -57 40 -54 6 4 8
32 6 68 -3 38 0 68 7 81 7 11 15 41 19 68 5 46 5 47 -22 47 -22 0 -32 -8 -51
-45 -26 -49 -92 -115 -115 -115 -18 0 -113 -86 -127 -114 -8 -17 -7 -17 10 4
24 28 20 12 -10 -47 -10 -20 -19 -45 -19 -55 0 -9 -5 -20 -10 -23 -6 -3 -10
-14 -10 -23 0 -14 2 -13 13 3 12 16 15 5 21 -81 6 -85 18 -168 41 -288 3 -16
10 -37 15 -47 6 -9 21 -53 35 -98 50 -157 54 -88 5 79 -37 128 -80 353 -80
424 0 111 50 228 105 242 36 9 60 -3 88 -45 24 -35 87 -239 87 -279 0 -50 46
-54 127 -11 l58 30 -3 279 c-1 154 -5 286 -8 295 -4 8 -3 32 0 53 4 20 7 49 7
64 0 15 4 30 9 33 5 3 7 18 4 33 -4 21 3 42 25 78 17 27 36 61 42 76 6 14 17
29 25 32 9 4 13 14 9 28 -3 13 1 60 9 106 16 89 52 164 88 183 12 7 30 21 39
32 16 20 34 27 77 29 12 0 22 4 22 9 0 17 -65 9 -115 -15z m-419 -887 c10 -17
-13 -36 -27 -22 -12 12 -4 33 11 33 5 0 12 -5 16 -11z"/>
<path d="M605 2930 c18 -63 45 -227 42 -247 -2 -13 0 -23 5 -23 6 0 8 -7 4
-15 -3 -9 0 -15 8 -15 15 0 29 26 18 33 -4 2 -2 2 5 1 17 -4 23 21 21 94 l-2
67 -6 -75 c-6 -74 -6 -74 -9 -20 -1 30 -3 74 -3 98 0 24 -3 41 -6 38 -3 -3
-12 0 -20 7 -13 10 -14 9 -4 -9 6 -12 8 -25 4 -29 -4 -5 -2 -5 4 -2 8 4 8 -4
0 -29 l-11 -35 -7 55 c-4 30 -17 72 -29 93 -13 24 -19 29 -14 13z"/>
<path d="M1074 2919 c-17 -7 -16 -8 6 -8 70 -2 166 -79 211 -169 10 -21 18
-30 19 -19 0 11 8 17 25 17 14 0 25 5 25 11 0 7 -10 9 -27 4 -16 -4 -25 -3
-21 0 4 4 1 14 -7 21 -8 8 -12 24 -10 35 4 18 1 20 -23 15 -17 -4 -22 -3 -14
2 8 5 14 12 15 15 3 11 -38 35 -48 29 -5 -3 -4 2 4 11 12 15 12 17 -3 11 -9
-3 -16 -2 -16 3 0 5 -8 9 -17 10 -10 1 -36 6 -59 11 -22 5 -49 5 -60 1z"/>
<path d="M852 2812 c2 -68 -1 -113 -7 -116 -5 -2 -7 -7 -2 -11 4 -5 10 -5 14
-2 7 8 4 229 -3 237 -3 2 -4 -46 -2 -108z"/>
<path d="M2233 2893 c4 -3 -3 -16 -16 -28 -12 -11 -23 -28 -25 -35 -4 -15 -21
-30 -35 -30 -5 0 -5 5 -1 12 4 7 3 8 -5 4 -9 -6 -9 -11 -1 -21 8 -9 8 -15 0
-20 -6 -3 -8 -11 -5 -16 4 -5 1 -9 -4 -9 -6 0 -11 -11 -11 -25 0 -15 -5 -24
-12 -22 -7 1 -12 -4 -11 -10 3 -15 -13 -17 -21 -4 -3 5 -23 19 -43 31 -36 21
-36 20 11 -24 32 -29 52 -42 57 -35 4 6 11 9 17 5 6 -4 8 2 5 14 -3 12 1 22
11 26 9 3 16 13 16 21 0 8 5 24 11 35 9 17 13 18 20 7 6 -10 9 -6 9 14 0 16
11 40 25 55 26 28 33 62 13 62 -6 0 -8 -3 -5 -7z"/>
<path d="M2272 2875 c1 -13 6 -23 12 -22 5 1 20 -14 34 -33 14 -19 21 -26 17
-15 -4 11 -8 26 -8 33 0 6 -4 12 -8 12 -5 0 -6 6 -4 13 3 6 -6 17 -20 23 -23
11 -24 10 -23 -11z"/>
<path d="M751 2850 c-1 -25 -5 -62 -10 -82 -5 -21 -5 -38 -1 -38 10 0 24 119
17 146 -2 10 -5 -1 -6 -26z"/>
<path d="M2489 2818 c-6 -12 -17 -26 -23 -30 -7 -5 -6 -8 3 -8 10 0 11 -3 2
-13 -6 -8 -7 -17 -3 -22 4 -4 -4 -2 -17 5 -38 20 -82 30 -75 18 5 -7 0 -9 -13
-6 -16 4 -20 1 -18 -11 2 -9 4 -23 5 -31 1 -9 3 -10 6 -4 3 7 15 10 27 8 22
-5 22 -5 0 5 -31 14 -29 21 8 21 17 0 28 -4 24 -10 -4 -6 1 -7 11 -3 18 7 18
6 -2 -72 -4 -18 -4 -18 6 -2 6 9 15 17 20 17 14 0 8 -22 -10 -38 -8 -8 -9 -11
-2 -7 7 4 12 0 12 -9 0 -25 -48 -45 -61 -25 -3 5 -19 12 -35 15 l-29 5 35 -24
c27 -19 38 -22 50 -14 12 9 13 9 3 -2 -17 -20 10 -71 38 -71 13 0 18 4 13 12
-5 8 -2 9 9 5 28 -11 79 4 73 20 -3 8 -1 11 4 8 6 -3 10 -1 10 4 0 6 -4 11 -9
11 -5 0 -14 12 -19 28 -9 26 -9 26 -18 -17 -12 -58 -33 -66 -36 -14 -1 37 -1
37 -5 6 -2 -18 -9 -33 -15 -33 -6 0 -8 9 -5 20 3 10 1 20 -4 22 -12 4 30 88
43 88 7 0 7 5 1 13 -13 18 -7 86 12 130 12 27 -2 32 -16 5z"/>
<path d="M1410 2811 c5 -11 10 -32 10 -47 0 -16 10 -36 26 -50 32 -31 44 -31
16 -1 -12 13 -20 26 -16 29 6 6 -33 88 -42 88 -2 0 0 -9 6 -19z"/>
<path d="M2528 2824 c-4 -5 -6 -38 -6 -72 1 -34 -2 -65 -5 -68 -3 -3 -3 -13 0
-22 5 -11 3 -13 -7 -7 -8 5 -11 4 -6 -3 3 -6 2 -13 -4 -17 -5 -3 -10 -14 -9
-23 0 -14 2 -13 9 3 4 12 15 27 24 34 13 11 17 11 22 -2 3 -9 2 -21 -2 -28 -5
-8 -3 -9 6 -4 10 6 12 4 7 -8 -3 -8 0 -21 8 -27 11 -9 12 -5 5 22 -4 18 -12
44 -17 58 -6 14 -9 40 -8 58 1 17 -2 32 -7 32 -5 0 -6 5 -3 10 4 6 11 7 17 4
7 -5 8 -2 3 5 -4 7 -10 24 -14 39 -4 14 -10 22 -13 16z"/>
<path d="M520 2791 c-8 -6 -18 -7 -22 -5 -11 7 0 -118 11 -129 12 -12 88 10
94 27 6 15 -1 26 -14 26 -5 0 -5 -7 -2 -17 4 -10 2 -14 -5 -9 -6 3 -13 2 -17
-4 -4 -6 -11 -7 -17 -4 -6 4 -14 0 -19 -7 -7 -12 -9 -11 -10 1 -5 44 -3 66 6
72 6 5 5 8 -2 8 -19 0 -16 21 5 36 19 15 14 18 -8 5z"/>
<path d="M2250 2781 c-13 -26 5 -38 20 -14 11 17 11 17 6 1 -3 -10 -1 -18 5
-18 6 0 7 -4 4 -10 -3 -5 -1 -10 4 -10 6 0 11 6 11 13 0 9 2 9 9 -1 6 -10 10
-9 14 7 3 12 1 24 -4 27 -5 3 -9 0 -9 -5 0 -19 -17 -12 -23 9 -7 25 -23 26
-37 1z"/>
<path d="M995 2766 c17 -8 34 -12 38 -9 4 3 14 -1 22 -7 12 -10 15 -10 15 1 0
10 3 10 8 3 10 -15 52 -28 52 -16 0 14 -52 31 -113 37 -51 5 -51 5 -22 -9z"/>
<path d="M2221 2763 c0 -12 -7 -24 -13 -26 -9 -4 -9 -8 -3 -14 6 -4 12 -17 13
-28 2 -11 6 -22 9 -25 3 -3 3 5 0 18 -3 12 -1 22 5 22 5 0 6 5 3 10 -3 6 -2
10 4 10 5 0 14 -6 18 -13 4 -8 17 -17 28 -21 14 -4 11 1 -10 18 -16 14 -33 25
-37 26 -4 0 -9 10 -11 23 -4 22 -4 22 -6 0z"/>
<path d="M1821 2740 c-23 -17 -49 -46 -58 -65 -10 -21 -24 -35 -35 -35 -15 0
-18 -9 -20 -57 -4 -154 -3 -151 -35 -147 -25 4 -24 2 7 -10 l35 -14 -30 -2
-30 -1 30 -14 c25 -11 21 -21 -7 -16 -5 0 -8 -4 -8 -10 0 -8 -6 -7 -17 2 -16
13 -16 13 0 -11 9 -13 17 -28 17 -32 0 -5 -26 -9 -57 -10 -57 -2 -57 -2 -10
-5 26 -2 47 -6 47 -9 0 -13 -31 -64 -39 -64 -5 0 -11 -9 -14 -20 -4 -17 -11
-19 -44 -14 -21 3 -42 10 -48 15 -14 14 -21 11 -22 -12 -2 -19 3 -20 58 -18
35 2 64 -2 71 -9 9 -9 9 -12 0 -12 -6 0 -9 -7 -6 -15 4 -8 1 -15 -5 -15 -6 0
-11 -7 -11 -16 0 -8 5 -12 11 -8 8 4 8 1 2 -12 -5 -11 -7 -30 -6 -44 1 -14 5
-75 7 -137 4 -94 2 -111 -10 -106 -16 6 -18 -5 -4 -27 6 -10 10 -11 10 -2 0 6
4 12 9 12 6 0 6 -12 2 -27 -5 -16 -6 -37 -4 -48 7 -42 8 -157 1 -161 -4 -3 -8
-12 -8 -20 0 -9 5 -12 12 -8 8 5 9 2 5 -10 -4 -10 -2 -26 3 -37 7 -13 7 -19 0
-19 -5 0 -10 -13 -10 -30 0 -16 -4 -30 -10 -30 -5 0 -10 -8 -9 -17 0 -11 3
-13 6 -5 2 6 9 12 14 12 12 0 11 -37 -1 -45 -6 -4 -8 -11 -5 -16 6 -9 -2 -11
-56 -12 -17 -1 -25 -6 -22 -13 3 -7 12 -10 21 -7 10 4 5 -5 -10 -20 -32 -30
-34 -43 -13 -67 14 -16 19 -15 63 6 26 13 57 24 70 24 16 0 22 6 22 23 -1 21
-1 22 -15 3 -13 -17 -15 -18 -15 -3 0 9 -7 17 -15 17 -8 0 -15 -4 -15 -10 0
-5 -7 -6 -17 -3 -11 4 -14 3 -9 -5 5 -8 1 -10 -11 -5 -32 11 -34 14 -22 29 8
10 22 13 42 8 20 -4 32 -2 38 7 5 8 6 77 4 154 -12 344 -14 684 -5 690 6 4 6
15 -1 32 -6 15 -6 30 0 37 21 26 68 122 64 133 -2 6 4 14 14 17 15 5 18 20 21
102 2 74 8 107 24 138 34 67 58 96 80 96 28 0 82 -42 118 -91 23 -32 30 -36
39 -25 15 18 24 86 11 86 -6 0 -10 -4 -10 -9 0 -4 -13 -8 -29 -7 -16 1 -27 4
-25 7 5 9 -28 36 -50 40 -10 2 -23 15 -27 28 -7 19 -6 22 6 17 8 -3 15 -1 15
4 0 18 -27 10 -69 -20z m-264 -1490 c3 -21 -11 -27 -22 -10 -8 13 3 45 12 36
4 -4 8 -15 10 -26z"/>
<path d="M1351 2710 c-30 -9 -49 -20 -43 -24 6 -3 16 -23 22 -44 6 -20 14 -43
16 -51 10 -32 22 6 15 47 -7 37 -6 45 12 57 11 8 24 12 28 9 4 -2 10 0 13 5
11 18 -9 18 -63 1z"/>
<path d="M730 2709 c0 -8 17 -13 73 -22 48 -7 29 10 -23 20 -27 6 -50 6 -50 2z"/>
<path d="M2391 2702 c-1 -7 -6 -10 -13 -6 -7 4 -8 3 -4 -4 4 -7 3 -12 -3 -12
-5 0 -11 6 -14 13 -3 6 -4 2 -4 -10 1 -27 6 -28 31 -10 11 8 16 20 13 28 -4
10 -6 11 -6 1z"/>
<path d="M80 2680 c54 -12 155 -22 147 -13 -9 8 -16 9 -112 16 -47 4 -58 3
-35 -3z"/>
<path d="M1592 2598 c-2 -83 0 -98 14 -98 10 0 12 4 7 13 -4 6 -10 50 -14 97
l-6 85 -1 -97z"/>
<path d="M2259 2683 c-29 -7 -9 -57 25 -61 16 -2 34 2 40 8 8 8 6 9 -8 4 -13
-5 -17 -4 -12 4 4 7 15 12 24 13 14 0 14 2 2 6 -8 3 -19 11 -23 17 -6 7 -7 6
-4 -4 4 -16 -15 -40 -32 -40 -6 0 -6 11 -1 30 5 17 8 29 7 29 -1 -1 -9 -3 -18
-6z"/>
<path d="M1474 2664 c10 -24 34 -161 38 -208 2 -33 4 -36 33 -35 16 1 22 3 13
6 -16 4 -18 18 -19 101 -1 53 -1 102 0 108 1 7 -5 14 -12 17 -10 4 -13 -2 -9
-19 2 -13 0 -24 -6 -24 -6 0 -12 14 -14 32 -2 17 -9 34 -17 36 -10 3 -12 0 -7
-14z"/>
<path d="M2033 2661 c-1 -15 3 -18 15 -14 15 6 15 5 3 -10 -11 -14 -11 -17 0
-17 10 -1 9 -4 -3 -14 -10 -7 -15 -16 -11 -19 9 -9 -16 -36 -30 -33 -7 1 -9 1
-4 -1 4 -3 4 -9 1 -14 -3 -6 1 -18 10 -28 16 -17 15 -68 0 -93 -4 -5 2 -8 12
-6 10 2 20 -4 21 -12 3 -12 -7 -15 -44 -16 -56 0 -86 -13 -74 -32 6 -10 18 -9
57 3 58 18 64 18 64 5 0 -5 -8 -10 -17 -11 -10 0 -36 -7 -58 -15 l-40 -14 58
4 57 5 0 -54 c0 -29 3 -60 6 -69 4 -11 -4 -16 -33 -21 -52 -9 -71 -16 -56 -22
6 -2 28 0 47 6 l36 9 2 -231 c2 -142 7 -232 13 -234 6 -2 10 34 10 94 1 54 2
159 3 234 l2 137 68 12 c168 29 279 51 307 59 17 5 40 12 52 16 l22 6 4 -418
c2 -230 6 -427 9 -438 3 -11 1 -26 -5 -33 -7 -9 -4 -17 12 -28 31 -22 17 -34
-42 -35 l-52 -1 47 -8 c26 -5 52 -11 57 -15 18 -10 12 -25 -6 -18 -17 6 -17 6
-2 -9 16 -17 15 -68 -1 -68 -5 0 -3 -13 3 -30 10 -26 9 -32 -8 -44 -15 -11
-22 -11 -27 -3 -5 8 -8 8 -8 1 0 -6 -7 -11 -15 -11 -8 0 -15 4 -15 9 0 5 -8 2
-17 -8 -14 -13 -18 -14 -22 -3 -2 8 -8 17 -13 20 -5 3 -10 22 -11 42 -2 31 -6
37 -24 37 -29 0 -28 -5 1 -56 34 -60 38 -91 12 -98 -13 -4 -26 1 -33 11 -12
16 -13 16 -13 0 0 -9 4 -17 9 -17 5 0 11 -9 14 -20 10 -40 -45 6 -70 59 -13
26 -13 26 -6 1 3 -13 14 -36 23 -50 10 -14 20 -42 24 -64 l5 -39 -26 24 c-69
63 -93 91 -93 108 0 26 -27 48 -42 33 -8 -8 -7 -13 5 -18 22 -8 22 -30 0 -43
-16 -9 -15 -10 8 -11 14 0 34 -7 45 -15 18 -13 16 -14 -26 -15 -25 0 -68 -3
-97 -6 l-52 -7 2 84 c1 46 6 87 12 91 6 5 4 8 -5 8 -13 0 -13 1 0 10 13 9 13
10 0 10 -9 0 -25 7 -37 15 -16 12 -19 21 -14 46 4 18 12 34 19 35 7 1 8 0 2
-3 -14 -6 -13 -43 1 -43 6 0 9 7 5 15 -3 8 2 19 12 24 12 8 13 10 3 11 -8 0
-12 3 -8 6 3 4 -4 15 -16 26 -15 13 -18 21 -9 24 14 6 17 34 3 34 -5 0 -18 3
-28 6 -17 5 -17 5 1 -10 24 -20 13 -34 -21 -29 -23 4 -25 2 -13 -7 12 -9 8
-11 -18 -6 -30 5 -32 4 -22 -14 9 -16 8 -18 -6 -13 -14 5 -15 3 -4 -16 21 -40
-1 -37 -36 4 -28 33 -34 36 -35 20 0 -11 -3 -14 -6 -7 -9 22 -22 3 -17 -26 4
-26 3 -26 -11 -8 -8 11 -15 16 -15 10 0 -5 -5 -1 -11 8 -8 14 -14 15 -37 6
-15 -6 -39 -10 -54 -9 -23 1 -26 -2 -22 -23 3 -19 -2 -29 -26 -43 -16 -9 -30
-21 -30 -26 0 -4 -4 -6 -9 -3 -16 10 -32 -21 -25 -51 6 -26 6 -27 -9 -9 -14
20 -15 20 -20 0 -4 -10 -9 -44 -12 -74 -3 -30 -10 -86 -15 -125 -11 -83 -18
-175 -13 -175 8 0 33 70 33 93 0 14 10 32 23 41 12 10 15 15 7 13 -8 -3 -21 2
-28 9 -10 11 -10 14 1 14 8 0 14 14 15 36 2 20 7 44 11 53 10 18 9 51 -2 68
-4 6 -2 15 4 19 7 4 9 3 5 -4 -3 -6 -2 -13 4 -17 5 -3 10 -1 10 4 0 6 5 11 11
11 8 0 9 -4 0 -13 -6 -8 -7 -18 -3 -22 4 -5 2 -5 -5 -2 -8 5 -10 -5 -6 -34 4
-29 2 -44 -8 -50 -11 -7 -11 -9 4 -9 10 0 17 8 17 19 0 11 6 22 13 24 10 4 10
6 0 6 -7 1 -13 6 -13 12 0 5 4 8 8 5 8 -5 9 -1 16 71 4 31 2 41 -8 37 -16 -6
-40 21 -31 36 3 6 10 8 14 5 5 -2 21 6 36 19 15 13 34 22 40 19 7 -2 31 1 54
7 23 6 73 12 111 14 65 3 70 1 70 -17 0 -11 -3 -17 -7 -14 -3 4 -12 -1 -18
-10 -8 -11 -25 -17 -46 -15 -46 3 -67 -11 -50 -32 17 -21 4 -21 -16 -1 -8 9
-18 14 -20 11 -3 -3 2 -12 10 -20 12 -12 17 -51 7 -51 -1 0 -3 -8 -5 -17 -2
-11 3 -18 13 -18 15 0 15 -2 2 -10 -10 -6 -14 -21 -11 -46 2 -30 0 -36 -13
-31 -11 5 -17 -2 -21 -26 -3 -18 -3 -41 -1 -52 3 -11 5 -24 5 -28 2 -21 21 7
21 31 0 32 44 155 52 147 3 -4 16 9 28 27 13 18 39 50 58 70 20 21 33 40 31
43 -9 9 -70 -57 -91 -99 -12 -23 -23 -35 -25 -29 -13 37 88 152 136 156 14 1
20 6 16 15 -3 7 -5 17 -6 20 0 4 -4 -2 -9 -13 -7 -18 -8 -17 -15 9 -7 24 -4
33 15 48 12 10 36 18 52 18 l31 0 -27 -21 c-35 -28 -36 -76 -1 -89 24 -9 25
-12 25 -109 l0 -99 -42 5 c-59 6 -70 11 -62 24 4 7 23 9 48 6 22 -3 33 -3 23
0 -16 4 -17 14 -14 89 3 48 1 84 -5 84 -5 0 -8 -6 -7 -13 4 -36 -5 -48 -51
-72 -58 -29 -66 -50 -77 -195 -5 -69 -9 -88 -15 -70 -6 21 -7 20 -3 -7 3 -19
0 -33 -6 -33 -6 0 -8 -9 -4 -20 4 -13 -1 -30 -14 -46 -12 -15 -21 -35 -21 -44
0 -18 25 -34 39 -25 14 8 30 108 41 249 7 76 14 144 16 151 3 7 15 17 28 23
l22 10 -19 -40 c-18 -35 -18 -44 -7 -81 7 -23 14 -97 16 -164 2 -68 8 -132 14
-142 5 -11 10 -29 10 -40 0 -12 4 -21 9 -21 9 0 6 38 -4 69 -3 7 -1 19 5 26 8
9 6 14 -5 19 -12 4 -13 10 -7 22 5 9 6 35 1 58 -4 22 -5 43 -3 45 2 2 23 4 46
3 33 0 38 2 23 8 -11 5 -31 9 -45 9 -21 1 -26 6 -28 32 -3 37 6 53 22 42 7 -4
3 0 -7 10 -18 16 -16 17 64 17 46 0 122 2 169 5 47 3 79 3 73 -1 -7 -3 -13
-13 -12 -22 0 -11 2 -12 6 -4 8 20 23 14 34 -15 8 -22 12 -25 20 -13 7 11 9 9
6 -10 -1 -14 -6 -31 -10 -37 -5 -8 -4 -13 2 -13 6 0 14 -19 17 -42 4 -22 15
-49 26 -60 15 -15 15 -18 3 -18 -13 0 -14 -4 -5 -21 8 -15 8 -24 0 -33 -8 -10
-7 -15 4 -19 22 -9 14 -110 -9 -113 -30 -4 -27 -12 8 -16 l35 -4 1 93 c1 52 4
99 7 107 3 7 -5 30 -17 50 -18 30 -21 48 -17 110 4 85 31 135 88 163 45 22
160 23 211 1 38 -17 59 -10 59 20 0 20 50 82 67 82 7 0 -2 14 -20 30 -19 16
-44 30 -55 30 -27 0 -38 17 -47 67 -6 40 -37 93 -54 93 -4 0 -8 -39 -9 -86 -2
-74 0 -85 14 -80 8 3 13 2 10 -3 -3 -4 23 -6 57 -4 l62 4 -31 -33 c-17 -18
-34 -46 -38 -61 -4 -16 -12 -27 -19 -24 -7 2 -11 10 -9 16 1 8 -2 9 -10 5 -7
-5 -17 -9 -23 -10 -5 -1 -18 -5 -27 -9 -16 -7 -17 28 -18 570 l0 577 21 5 c19
5 20 11 15 80 -5 65 -3 78 14 100 33 42 26 60 -22 66 -24 3 -52 7 -63 9 -17 2
-19 -2 -17 -24 2 -16 -1 -28 -8 -28 -6 0 -8 -5 -4 -12 4 -7 3 -8 -5 -4 -6 4
-36 2 -66 -4 -44 -9 -55 -15 -55 -31 0 -30 -28 -79 -68 -121 -20 -21 -31 -38
-26 -38 6 0 14 3 18 7 7 7 37 13 69 14 10 0 15 5 11 11 -11 18 -13 68 -2 62 5
-4 8 -17 5 -29 -4 -22 -1 -23 42 -21 26 1 52 5 59 10 14 8 16 32 3 40 -5 4 -7
-2 -4 -12 4 -15 -1 -19 -25 -20 -24 0 -29 3 -25 18 3 10 0 21 -6 24 -6 4 -8
-1 -6 -13 2 -11 -2 -25 -10 -31 -10 -8 -14 -3 -17 24 -2 19 0 32 5 29 5 -3 6
3 3 14 -8 27 9 39 64 46 l45 6 0 -73 0 -73 -130 -26 c-282 -58 -328 -67 -333
-62 -3 3 10 11 28 19 18 7 27 15 21 17 -18 6 -28 89 -11 89 7 0 19 -8 27 -17
13 -16 13 -16 4 4 -6 12 -11 35 -11 52 0 16 -5 31 -11 33 -7 2 5 30 28 68 41
67 94 108 143 111 20 1 18 3 -10 9 l-35 7 43 2 c36 1 48 -4 70 -27 15 -15 32
-37 38 -47 7 -11 15 -17 20 -12 14 13 -52 82 -92 95 -51 18 -102 3 -154 -44
-40 -36 -87 -135 -74 -156 4 -6 -3 -5 -15 2 -26 13 -40 42 -23 48 8 2 6 14 -5
37 -9 19 -20 32 -25 29 -4 -3 -5 3 -1 12 6 16 7 16 18 0 20 -27 36 -19 33 17
-1 17 -6 35 -11 38 -5 4 -3 15 3 26 10 16 10 24 -5 46 -21 32 -30 34 -32 8z
m564 -202 c26 -10 27 -12 8 -19 -30 -13 -33 -12 -45 10 -12 23 -4 25 37 9z
m-11 -106 c0 -21 -5 -44 -9 -50 -5 -8 -4 -13 3 -13 6 0 8 -5 5 -10 -12 -20
-22 0 -23 47 -1 38 8 61 24 63 1 0 1 -17 0 -37z"/>
<path d="M275 2650 c17 -4 44 -8 60 -8 l30 0 -30 8 c-16 4 -43 8 -60 8 l-30 0
30 -8z"/>
<path d="M565 2610 c-27 -10 -41 -19 -30 -19 11 0 40 9 65 19 58 24 31 24 -35
0z"/>
<path d="M670 2609 c0 -23 22 -49 41 -49 11 0 17 5 14 10 -4 6 -10 8 -15 5 -5
-3 -12 6 -16 20 -6 24 -24 35 -24 14z"/>
<path d="M575 2579 c-35 -15 -37 -18 -14 -18 25 -1 69 23 59 32 -3 2 -23 -4
-45 -14z"/>
<path d="M1250 2578 c0 -5 -4 -7 -9 -3 -12 7 -61 -15 -61 -27 0 -5 5 -6 10 -3
6 4 31 7 55 7 52 0 63 9 29 25 -14 6 -24 7 -24 1z"/>
<path d="M1362 2551 c-3 -46 10 -108 24 -108 16 0 19 18 4 33 -14 14 -19 66
-8 80 4 6 2 11 -5 11 -8 0 -14 -7 -15 -16z"/>
<path d="M2665 2552 c-5 -4 -16 -15 -23 -24 -12 -14 -11 -16 8 -11 15 4 31 -4
56 -28 44 -42 64 -79 64 -119 0 -16 4 -30 9 -30 17 0 51 -126 51 -192 0 -17 3
-29 6 -25 8 7 11 77 4 77 -3 0 -7 14 -8 31 -2 19 2 28 8 24 5 -3 10 -2 10 4 0
6 7 8 15 5 10 -4 15 0 15 12 0 14 -2 16 -9 6 -4 -8 -12 -14 -16 -13 -13 0 -32
46 -23 57 11 15 0 24 -30 24 -18 0 -23 4 -18 16 3 9 6 18 6 20 0 2 9 4 19 4
11 0 23 5 27 12 4 7 3 8 -5 4 -12 -8 -51 1 -50 12 4 25 -4 41 -21 47 -11 3
-19 9 -19 13 3 21 -3 32 -18 32 -29 1 -54 25 -41 38 13 13 -1 16 -17 4z"/>
<path d="M2218 2528 c-13 -13 -17 -17 -7 -10 9 7 36 16 60 21 l44 9 -37 1
c-26 1 -44 -6 -60 -21z"/>
<path d="M620 2528 c-19 -6 -29 -13 -22 -15 6 -3 12 -18 12 -34 0 -16 4 -29
10 -29 5 0 7 16 5 35 -4 28 -1 35 13 36 45 2 106 10 111 14 8 9 -94 3 -129 -7z"/>
<path d="M2335 2516 c21 -31 13 -34 -16 -5 -26 26 -71 20 -107 -14 -13 -12
-26 -20 -29 -19 -2 2 -8 0 -11 -4 -4 -4 -2 -5 3 -2 6 3 19 -4 30 -15 l20 -20
-22 12 c-15 8 -23 8 -23 1 0 -5 4 -10 9 -10 5 0 7 -8 4 -18 -4 -16 0 -18 26
-14 28 4 46 32 21 32 -18 0 -10 47 11 66 20 18 21 18 35 0 12 -17 12 -23 -1
-42 -24 -37 -19 -45 25 -38 36 6 40 4 40 -15 0 -23 -54 -90 -65 -79 -9 9 14
50 24 43 8 -4 25 24 19 31 -2 1 -15 0 -30 -3 -25 -5 -28 -10 -28 -44 0 -22 -4
-39 -10 -39 -5 0 -10 16 -10 35 0 36 -15 46 -38 23 -19 -19 -14 -30 10 -22 19
6 21 5 11 -8 -7 -8 -9 -18 -5 -23 4 -4 -2 -5 -13 -3 -11 2 -25 -3 -32 -12 -9
-12 -12 -8 -18 25 -4 22 -11 47 -16 55 -10 19 0 -56 13 -90 7 -20 11 -22 18
-10 6 8 10 12 10 7 0 -4 14 -1 30 8 28 14 30 14 30 -2 0 -10 3 -14 8 -8 8 12
58 35 75 35 7 0 3 -7 -7 -15 -11 -8 -17 -17 -14 -20 10 -11 52 47 54 76 1 17
5 47 9 66 5 27 9 32 20 23 10 -8 14 -8 18 2 3 8 6 8 6 2 2 -20 111 8 111 28 0
6 -18 8 -47 3 -81 -11 -124 -25 -117 -37 4 -7 3 -8 -4 -4 -7 4 -12 14 -12 22
0 8 4 13 9 9 5 -3 12 -1 15 3 3 5 -8 19 -25 31 l-31 23 17 -26z"/>
<path d="M140 2474 c-6 -22 -14 -72 -17 -112 -7 -85 7 -122 44 -122 22 0 23 3
23 74 0 79 -15 175 -29 189 -6 6 -14 -6 -21 -29z m39 -146 c1 -51 -12 -70 -28
-39 -15 27 -14 114 2 130 10 10 13 7 18 -16 4 -15 7 -49 8 -75z"/>
<path d="M20 2491 c0 -5 -3 -16 -6 -24 -3 -10 3 -17 20 -21 39 -10 56 -83 35
-145 -10 -27 -16 -32 -35 -28 -27 5 -33 -8 -8 -17 28 -11 52 -6 58 10 10 26 7
164 -4 164 -5 0 -10 8 -10 18 0 11 -8 26 -18 35 -21 19 -32 22 -32 8z"/>
<path d="M236 2484 c-3 -8 -6 -24 -6 -35 0 -10 -3 -19 -7 -19 -5 0 -7 -44 -5
-99 3 -98 3 -99 30 -104 39 -8 52 15 52 93 0 97 -45 213 -64 164z m31 -76 c13
-30 16 -129 4 -147 -7 -12 -13 -12 -24 -3 -12 10 -16 75 -8 160 2 19 17 14 28
-10z"/>
<path d="M1590 2480 c0 -5 10 -12 23 -14 54 -11 77 -13 77 -5 0 5 -11 9 -24 9
-14 0 -36 4 -50 10 -17 6 -26 6 -26 0z"/>
<path d="M357 2435 c-36 -63 -39 -173 -6 -206 11 -11 30 -19 42 -17 20 3 22 9
25 88 3 96 -2 138 -22 165 -12 16 -15 14 -39 -30z m43 -24 c19 -37 9 -155 -15
-164 -22 -9 -35 9 -37 49 -4 76 1 104 18 104 10 0 14 6 10 15 -8 22 12 18 24
-4z"/>
<path d="M467 2444 c-12 -13 -7 -51 8 -64 8 -7 15 -25 15 -41 0 -19 -5 -29
-15 -29 -8 0 -14 3 -14 8 1 4 0 14 -1 22 -1 8 -6 -7 -11 -35 -4 -27 -6 -51 -4
-53 2 -2 17 4 34 13 35 18 39 43 20 123 -13 51 -21 66 -32 56z"/>
<path d="M554 2413 c-9 -21 -18 -59 -20 -84 l-4 -47 43 -4 c50 -5 57 3 45 51
-5 20 -10 50 -12 66 -5 64 -28 72 -52 18z m36 -52 c13 -32 7 -51 -15 -51 -17
0 -28 34 -20 60 9 28 21 25 35 -9z"/>
<path d="M630 2420 c0 -9 23 -30 32 -30 4 0 12 8 17 18 8 14 5 17 -20 17 -16
1 -29 -2 -29 -5z"/>
<path d="M2172 2388 c1 -27 5 -48 10 -48 11 0 9 49 -2 75 -7 15 -9 8 -8 -27z"/>
<path d="M1415 2403 c-11 -3 -24 -10 -30 -15 -7 -8 -6 -9 3 -4 7 4 21 5 30 1
16 -6 16 -7 -1 -20 -16 -11 -14 -13 17 -17 19 -2 32 0 30 4 -3 4 3 8 14 8 10
0 19 7 19 15 0 18 1 18 -30 6 -19 -7 -27 -6 -31 4 -3 8 3 16 12 18 24 6 -7 6
-33 0z"/>
<path d="M1888 2393 c-18 -5 -25 -23 -9 -23 5 0 22 7 37 15 22 11 24 15 9 14
-11 -1 -28 -3 -37 -6z"/>
<path d="M1810 2370 c-9 -6 -10 -10 -3 -10 6 0 18 -3 26 -6 8 -3 17 2 20 10 7
18 -19 22 -43 6z"/>
<path d="M847 2305 c8 -34 10 -123 3 -144 -3 -7 1 -16 8 -18 17 -7 15 112 -4
157 -12 31 -13 31 -7 5z"/>
<path d="M942 2318 c-20 -26 -43 -80 -39 -91 3 -7 10 3 17 21 7 17 18 32 26
32 8 0 14 5 14 10 0 25 19 6 34 -33 20 -53 20 -87 1 -113 -18 -24 -19 -34 -1
-34 35 0 35 97 1 168 -26 54 -35 61 -53 40z"/>
<path d="M1487 2320 c-35 -6 -63 -20 -40 -20 6 0 9 -11 8 -24 -2 -19 3 -25 21
-29 29 -5 37 3 19 20 -11 10 -15 10 -19 0 -3 -7 -4 -1 -3 13 2 21 7 25 34 25
17 0 34 3 38 6 11 11 -19 16 -58 9z"/>
<path d="M1206 2298 c-8 -13 -17 -41 -20 -63 l-6 -40 16 43 c9 23 21 42 28 42
21 0 36 -23 36 -57 0 -18 4 -33 9 -33 13 0 6 49 -13 94 -17 42 -30 45 -50 14z"/>
<path d="M1320 2284 c-17 -52 -22 -91 -12 -98 5 -3 9 13 10 36 1 22 7 47 14
55 10 13 14 12 25 -3 12 -17 13 -17 13 2 0 20 -17 44 -31 44 -4 0 -13 -16 -19
-36z"/>
<path d="M2931 2319 c-1 -3 3 -30 8 -60 8 -46 22 -183 25 -241 0 -9 4 -15 7
-12 11 7 8 224 -3 224 -5 0 -8 6 -7 13 2 6 -5 28 -13 47 -9 19 -17 32 -17 29z"/>
<path d="M1083 2298 c-6 -7 -14 -24 -18 -38 -7 -23 -7 -23 9 -7 24 24 33 21
45 -15 6 -17 14 -29 17 -25 8 8 -14 73 -30 86 -10 8 -16 8 -23 -1z"/>
<path d="M1397 2283 c3 -10 10 -24 16 -30 5 -7 6 -13 1 -13 -4 0 -3 -5 4 -12
14 -14 16 -54 2 -63 -5 -3 0 -15 12 -27 14 -14 18 -23 10 -26 -7 -2 -12 -8
-12 -13 0 -6 4 -8 9 -4 5 3 12 -3 15 -12 2 -10 3 14 2 52 -3 48 -11 85 -27
118 -22 45 -45 66 -32 30z"/>
<path d="M2288 2295 c-3 -3 -25 -9 -49 -14 l-44 -8 37 -7 c29 -6 41 -4 54 8 9
10 14 19 12 21 -3 3 -7 3 -10 0z"/>
<path d="M1988 2257 c4 -18 3 -20 -9 -10 -12 9 -14 5 -16 -23 -3 -36 2 -40 27
-24 13 8 12 10 -4 10 -15 0 -16 3 -6 15 9 11 16 12 25 5 8 -7 12 -5 12 5 0 8
-5 11 -10 8 -6 -4 -8 0 -4 10 3 8 0 18 -7 20 -10 4 -12 -1 -8 -16z"/>
<path d="M2146 2255 c-4 -15 -5 -30 -1 -33 3 -3 5 2 5 12 0 13 4 15 18 8 9 -5
28 -6 42 -1 21 6 22 7 5 8 -12 1 -26 6 -33 13 -7 7 -12 8 -12 3 0 -6 -4 -4 -9
3 -6 10 -10 7 -15 -13z"/>
<path d="M606 2225 c-3 -9 -20 -16 -43 -17 -36 -1 -37 -1 -6 -5 18 -2 48 0 67
5 28 8 34 7 29 -4 -3 -8 1 -14 8 -15 8 0 5 -4 -6 -9 -17 -7 -17 -9 -3 -9 12
-1 15 -6 11 -18 -4 -11 -3 -14 5 -9 15 9 16 51 2 77 -13 23 -55 25 -64 4z"/>
<path d="M2355 2214 c-33 -8 -106 -21 -162 -30 -75 -12 -103 -20 -103 -31 0
-8 4 -12 9 -9 5 4 12 0 14 -6 3 -8 6 -5 6 6 1 14 7 17 26 14 14 -3 28 -1 31 4
3 4 10 6 15 3 5 -4 9 -1 9 4 0 6 10 11 23 11 19 0 18 -2 -10 -20 -35 -21 -45
-43 -15 -34 14 5 15 4 2 -5 -11 -8 -18 -6 -29 7 -13 16 -13 16 -7 -2 4 -11 0
-29 -9 -42 -19 -29 -5 -32 20 -4 10 11 25 20 34 20 9 0 24 12 34 25 18 26 11
35 -11 13 -7 -7 -12 -8 -12 -2 0 6 8 18 19 28 16 15 19 15 31 1 10 -12 10 -18
0 -30 -17 -20 -11 -25 18 -14 22 8 30 34 12 41 -19 6 6 27 40 33 19 3 42 8 51
11 9 2 19 -2 22 -10 4 -10 -3 -13 -29 -11 -19 1 -37 -2 -40 -6 -2 -5 -10 -6
-17 -3 -10 3 -12 -5 -9 -30 4 -31 1 -36 -22 -42 -17 -4 -26 -13 -26 -26 0 -17
3 -17 35 8 19 14 42 24 50 20 18 -7 19 -43 1 -75 -8 -14 -12 -31 -9 -38 3 -7
0 -13 -7 -13 -6 0 -8 5 -5 10 7 11 -6 13 -29 4 -9 -3 -16 -12 -16 -20 0 -14
12 -19 23 -8 3 3 31 8 62 10 69 5 82 11 58 31 -10 8 -13 12 -7 9 7 -3 9 8 4
38 -7 45 -3 69 9 62 4 -3 7 12 7 34 -1 21 -4 36 -8 33 -7 -4 -10 5 -7 25 1 4
5 6 10 5 5 -2 9 2 9 7 0 12 -18 11 -95 -6z m19 -46 c-3 -5 6 -6 21 -2 18 4 30
2 36 -7 12 -20 11 -29 -3 -26 -9 1 -13 -15 -13 -55 0 -45 -3 -58 -15 -59 -10
0 -11 -2 -2 -6 22 -9 13 -23 -13 -21 -17 2 -24 7 -20 16 3 8 5 18 5 24 0 6 7
7 16 4 15 -6 15 -4 3 10 -11 14 -11 18 -1 22 10 3 10 7 0 20 -10 12 -10 14 0
8 6 -4 12 -3 12 3 0 5 -4 13 -10 16 -15 10 -12 23 8 28 16 4 16 5 -1 6 -10 0
-20 -6 -24 -14 -5 -14 -8 -14 -24 1 -13 12 -16 21 -9 29 11 13 42 16 34 3z"/>
<path d="M463 2180 c-13 -5 -23 -11 -23 -12 0 -2 34 -2 76 0 42 2 74 5 72 6
-10 9 -107 13 -125 6z"/>
<path d="M901 2177 c-2 -33 18 -57 47 -57 25 1 26 1 7 12 -26 15 -40 30 -48
48 -4 12 -6 11 -6 -3z"/>
<path d="M387 2157 c-3 -9 -2 -17 2 -19 5 -2 11 -13 15 -25 5 -17 2 -23 -16
-29 -13 -4 -30 -7 -38 -6 -12 2 -12 1 -1 -6 11 -8 10 -14 -4 -36 -10 -14 -21
-26 -25 -26 -8 0 -24 -69 -17 -76 5 -5 127 171 127 183 0 4 -9 19 -19 32 -15
19 -19 21 -24 8z"/>
<path d="M1260 2158 c0 -7 -3 -24 -6 -38 -5 -17 -3 -22 3 -15 15 15 25 65 13
65 -5 0 -10 -6 -10 -12z"/>
<path d="M1505 2160 c-15 -7 -9 -9 24 -9 24 -1 41 2 37 6 -10 11 -39 12 -61 3z"/>
<path d="M2727 2150 c-32 -4 -61 -11 -65 -14 -4 -4 18 -4 48 -1 40 5 51 4 40
-4 -12 -8 -8 -11 18 -11 25 0 32 4 32 20 0 11 -3 19 -7 19 -5 -1 -34 -5 -66
-9z"/>
<path d="M466 2126 c3 -8 -11 -40 -31 -71 -20 -31 -31 -54 -25 -50 7 4 28 33
47 64 20 31 41 59 47 63 6 4 -1 8 -16 8 -20 0 -26 -4 -22 -14z"/>
<path d="M510 2105 c-6 -19 -32 -58 -58 -87 -46 -52 -47 -52 -12 -31 19 12 50
43 67 70 18 26 37 53 43 60 15 18 12 23 -9 23 -13 0 -23 -11 -31 -35z"/>
<path d="M1519 2118 c-6 -14 -6 -57 0 -54 5 3 6 -6 3 -19 -2 -14 -9 -25 -14
-25 -6 0 -5 -7 2 -15 7 -8 9 -15 4 -15 -5 0 -2 -5 6 -10 12 -8 12 -10 1 -10
-10 0 -11 -9 -6 -37 4 -21 7 -53 6 -70 -2 -34 13 -47 17 -15 4 33 8 51 15 58
3 4 -4 15 -16 25 -13 11 -18 22 -12 26 9 7 11 89 4 146 -2 15 -7 22 -10 15z"/>
<path d="M2103 2113 c-8 -3 -13 -25 -13 -60 0 -67 9 -67 11 1 2 32 5 44 13 36
15 -15 33 -12 40 6 5 14 4 15 -8 5 -16 -14 -40 -6 -31 10 7 10 6 10 -12 2z"/>
<path d="M2309 2067 c-21 -14 -36 -33 -39 -52 -7 -42 -27 -43 -22 0 5 44 -1
44 -27 0 -15 -27 -26 -34 -46 -33 -13 1 -24 7 -24 13 4 34 -3 51 -19 51 -10 0
-19 -6 -19 -12 0 -7 6 -10 14 -7 8 3 13 -2 13 -15 0 -11 3 -28 7 -38 5 -13 3
-16 -10 -11 -9 3 -19 2 -22 -4 -4 -5 -11 -7 -16 -4 -5 4 -9 -1 -9 -9 0 -20 5
-20 24 0 9 8 16 12 16 7 0 -5 14 -10 31 -11 21 -2 28 1 23 9 -5 9 -1 10 14 7
12 -4 22 -3 22 2 0 4 10 7 23 6 14 -1 25 7 31 20 5 12 25 27 43 33 27 10 33
17 33 42 0 16 -2 29 -4 29 -1 0 -18 -10 -37 -23z"/>
<path d="M2188 2069 c-19 -10 -25 -54 -9 -64 10 -5 42 21 40 33 -3 28 -15 40
-31 31z"/>
<path d="M2743 2073 c-24 -2 -43 -8 -43 -12 0 -5 -12 -7 -27 -4 l-28 3 25 -10
c16 -7 48 -9 85 -4 33 4 54 9 47 11 -6 3 -10 9 -6 14 3 5 2 8 -3 7 -4 -1 -27
-3 -50 -5z"/>
<path d="M1444 2025 c4 -19 3 -35 -1 -35 -5 0 -7 -30 -5 -67 2 -38 3 -79 3
-93 -3 -147 1 -274 8 -315 6 -34 9 42 10 248 1 212 -2 297 -10 297 -7 0 -9
-12 -5 -35z"/>
<path d="M2858 2053 c-16 -2 -28 -8 -28 -13 0 -10 82 -1 95 11 9 9 -15 10 -67
2z"/>
<path d="M1861 2036 c-6 -7 -8 -16 -4 -19 10 -11 83 -8 83 3 0 6 -1 10 -3 10
-1 0 -16 4 -34 9 -23 7 -35 6 -42 -3z"/>
<path d="M1765 2030 c-11 -4 -23 -6 -26 -4 -4 2 -10 -7 -13 -21 -4 -14 -13
-25 -21 -25 -24 0 -20 -82 6 -111 16 -19 19 -20 15 -6 -16 50 -17 70 -6 98 14
32 55 59 91 59 12 0 19 3 15 7 -10 10 -39 12 -61 3z"/>
<path d="M2000 2008 c0 -15 5 -28 11 -28 5 0 7 5 4 10 -3 6 0 10 7 10 10 0 10
2 -1 9 -11 7 -10 11 5 19 18 10 17 11 -3 9 -18 -1 -23 -7 -23 -29z"/>
<path d="M2479 2018 c-1 -2 -3 -12 -5 -23 -1 -11 -6 -36 -10 -57 -5 -31 -3
-38 17 -49 21 -11 22 -10 12 3 -7 8 -9 19 -5 23 4 5 1 5 -7 0 -11 -6 -13 -3
-8 16 4 13 7 31 7 39 0 12 2 12 9 2 7 -11 9 -11 14 2 4 9 1 15 -6 13 -7 -1
-11 6 -9 16 2 14 -4 24 -9 15z"/>
<path d="M0 1979 c0 -7 13 -27 29 -44 37 -38 45 -74 46 -207 0 -59 4 -110 8
-114 4 -4 6 57 4 137 -2 123 -5 149 -22 178 -23 39 -65 72 -65 50z"/>
<path d="M2782 1963 c-23 -3 -32 -9 -28 -18 3 -8 1 -16 -5 -19 -5 -2 -4 -3 3
-1 7 1 12 8 11 14 -4 16 34 8 57 -12 21 -18 23 -29 21 -117 -3 -112 6 -351 14
-359 6 -5 10 167 9 350 -1 124 -11 171 -37 167 -7 0 -27 -3 -45 -5z"/>
<path d="M191 1943 c-26 -22 -58 -112 -55 -155 1 -18 3 -62 3 -97 1 -97 10
-68 12 39 2 143 53 238 90 169 12 -24 4 -101 -14 -130 -9 -15 -8 -26 7 -54 16
-29 18 -45 11 -102 -11 -86 -9 -203 4 -216 6 -6 11 24 16 79 3 49 10 116 14
149 7 52 6 63 -12 87 -17 22 -18 31 -9 55 6 15 14 49 18 76 5 41 3 51 -20 82
-31 40 -36 41 -65 18z"/>
<path d="M1928 1929 c15 -16 33 -29 40 -29 9 0 11 -7 6 -22 -9 -32 -24 -49
-37 -41 -6 3 -7 1 -3 -5 5 -8 -1 -12 -15 -12 -20 0 -21 -2 -7 -12 8 -7 25 -28
37 -45 13 -20 31 -33 43 -33 12 0 19 3 16 6 -4 3 -2 19 2 35 5 17 5 31 -1 34
-5 4 -9 -6 -9 -21 0 -25 -1 -26 -22 -12 -32 21 -32 31 0 52 25 16 28 25 25 54
-4 39 -29 63 -75 73 l-27 6 27 -28z"/>
<path d="M2650 1940 c-10 -7 -2 -8 29 -5 24 2 46 6 49 9 9 10 -62 6 -78 -4z"/>
<path d="M2125 1910 c-23 -6 -18 -8 26 -6 32 0 55 4 52 9 -5 9 -37 7 -78 -3z"/>
<path d="M2370 1904 c-14 -2 -80 -11 -147 -21 l-123 -16 0 -92 c0 -79 3 -94
20 -110 20 -18 28 -51 10 -40 -11 7 6 -38 27 -70 16 -23 17 -2 2 26 -7 14 -7
30 2 57 10 31 13 34 19 17 6 -18 8 -18 33 9 30 33 34 46 12 46 -8 0 -15 -9
-15 -20 0 -11 -5 -20 -11 -20 -6 0 -8 7 -5 16 4 11 0 15 -17 14 -46 -4 -51 2
-14 17 42 17 43 20 18 51 -19 21 -38 31 -27 13 3 -5 -1 -11 -9 -15 -8 -3 -12
-12 -9 -20 3 -8 1 -17 -5 -21 -11 -6 -15 5 -12 40 4 41 23 73 49 81 61 17 83
9 39 -15 -23 -12 -33 -46 -18 -56 5 -2 20 7 34 20 l25 25 6 -35 c4 -19 4 -41
0 -48 -4 -6 1 -5 12 5 29 25 84 28 84 4 0 -9 -7 -12 -19 -9 -14 3 -21 -3 -30
-28 -19 -54 -12 -66 14 -26 14 20 27 37 29 37 1 0 3 -15 3 -32 0 -18 -2 -27
-5 -20 -2 8 -13 1 -28 -20 -18 -24 -23 -40 -18 -60 7 -32 -11 -39 -19 -7 -8
29 -31 19 -35 -14 -2 -15 -8 -27 -14 -27 -6 0 -8 11 -6 25 6 30 -12 33 -29 6
-10 -15 -9 -25 1 -48 84 -178 103 -213 114 -213 7 0 22 -21 33 -46 18 -39 34
-51 34 -26 0 4 4 13 9 21 5 8 5 12 0 9 -5 -2 -20 6 -33 19 l-24 23 49 2 c38 1
41 2 14 5 -57 6 -81 13 -75 23 3 5 0 12 -7 17 -7 4 -20 22 -28 38 -8 17 -21
41 -29 53 -19 31 -23 74 -8 84 7 4 24 8 38 8 19 0 28 6 32 21 3 12 10 18 16
14 7 -3 11 2 11 14 0 33 1 35 15 51 9 9 12 26 8 40 -5 25 -5 25 10 4 12 -15
16 -51 18 -142 5 -249 17 -197 18 81 0 158 -2 286 -6 286 -5 -1 -19 -3 -33 -5z
m-3 -46 c12 -15 24 -84 17 -91 -6 -6 -63 21 -86 41 -10 8 -18 12 -18 7 0 -4
-7 -2 -15 5 -15 12 -22 45 -7 37 4 -3 16 -1 27 4 31 12 71 10 82 -3z"/>
<path d="M916 1868 c-18 -25 -21 -58 -6 -58 6 0 10 7 10 15 0 8 8 19 19 24 15
8 20 6 30 -15 23 -52 9 -72 -35 -49 -29 15 -44 12 -44 -9 0 -8 -7 -19 -16 -27
-9 -7 -13 -21 -10 -35 4 -16 1 -23 -14 -27 -11 -3 -20 -10 -20 -17 0 -7 13 -3
34 10 38 23 40 22 181 -26 22 -7 51 -15 65 -16 20 -3 6 -15 -80 -66 -58 -34
-116 -62 -129 -62 -13 0 -48 8 -77 17 -46 14 -52 19 -42 32 10 13 9 13 -6 0
-16 -15 -21 -15 -45 -3 -24 13 -26 12 -28 -9 -16 -136 -30 -218 -54 -305 -16
-57 -30 -114 -31 -128 -1 -13 -6 -24 -11 -24 -5 0 -6 -7 -3 -16 4 -9 2 -13 -5
-8 -8 4 -9 -1 -4 -15 3 -11 2 -21 -2 -21 -5 0 -18 -28 -28 -62 -36 -125 -58
-165 -140 -256 -37 -42 -100 -82 -127 -82 -17 0 -17 -72 0 -78 21 -7 92 26
142 66 51 40 134 150 168 222 27 57 61 160 53 160 -9 0 -41 -59 -41 -76 0 -8
-8 -14 -17 -15 -10 0 -13 -3 -7 -5 13 -6 7 -44 -7 -44 -5 0 -9 -7 -9 -16 0
-17 -77 -133 -119 -177 -37 -40 -106 -79 -133 -75 -20 3 -18 6 19 25 22 12 44
20 47 17 3 -2 4 -1 1 3 -3 3 7 15 22 25 16 10 24 18 20 18 -5 0 8 19 27 42 20
23 34 43 31 46 -2 2 1 10 8 18 29 33 37 44 31 44 -3 0 -1 7 6 15 7 8 9 15 5
15 -4 0 -1 10 7 23 8 12 18 34 22 50 3 15 11 27 16 27 5 0 6 7 3 17 -4 11 -3
14 5 9 8 -5 10 -2 6 8 -3 9 3 35 15 58 11 24 23 61 27 83 3 22 11 49 17 60 6
11 10 29 8 41 -1 11 5 27 14 34 11 10 13 16 4 26 -9 11 -7 15 6 20 11 5 13 9
5 14 -6 3 -8 14 -4 24 4 10 10 13 13 8 3 -6 5 19 5 54 -2 54 1 66 18 78 11 8
15 17 10 20 -6 3 -13 0 -15 -6 -3 -8 -6 -6 -6 5 -1 19 14 23 24 7 4 -6 11 -7
17 -4 7 4 8 2 4 -4 -4 -7 -2 -12 4 -12 6 0 8 -4 5 -10 -3 -5 -1 -10 4 -10 6 0
11 -7 11 -15 0 -8 8 -19 18 -24 19 -10 54 4 120 46 13 8 33 13 44 11 21 -3 21
-4 4 -21 -10 -9 -23 -14 -29 -10 -7 3 -1 -6 13 -21 20 -22 22 -29 11 -36 -8
-4 -20 -6 -28 -3 -7 3 -13 0 -13 -7 0 -7 -6 -10 -14 -7 -8 3 -17 -2 -21 -11
-3 -9 -1 -18 4 -20 6 -2 11 -8 11 -13 0 -6 -6 -7 -12 -3 -9 5 -8 2 1 -9 8 -10
11 -21 7 -25 -4 -4 -12 1 -17 11 -11 19 -29 23 -29 6 0 -5 5 -7 10 -4 6 3 10
-1 10 -9 0 -18 34 -56 50 -56 6 0 10 22 10 48 0 38 5 53 23 70 13 12 29 22 35
22 16 0 15 10 -5 32 -14 16 -15 20 -1 36 9 9 13 22 11 29 -2 7 1 22 7 34 9 16
14 18 20 9 8 -13 13 -10 87 50 7 6 13 5 16 -3 3 -7 6 2 6 19 1 28 4 31 26 26
22 -4 25 -1 25 22 0 21 -5 26 -25 26 -13 0 -28 -7 -32 -15 -7 -12 -23 -10
-103 15 -52 16 -108 31 -123 35 -20 4 -27 11 -25 23 5 22 22 20 140 -12 115
-31 128 -32 128 -7 0 22 -16 37 -22 20 -5 -14 -78 15 -78 30 0 6 -5 11 -11 11
-5 0 -8 -4 -5 -8 2 -4 0 -14 -5 -22 -8 -13 -12 -12 -24 4 -8 11 -15 33 -15 49
0 33 -29 87 -47 87 -6 0 -19 -10 -27 -22z"/>
<path d="M1762 1852 c-1 -20 -8 -42 -14 -49 -7 -9 -8 -17 -2 -21 28 -21 35
-52 20 -101 -14 -48 -14 -49 11 -73 15 -12 23 -17 19 -10 -12 20 4 35 22 20
13 -11 16 -10 20 2 8 24 95 109 107 103 5 -2 0 4 -11 14 -12 10 -25 27 -28 38
-6 18 -50 55 -116 96 -25 16 -25 15 -28 -19z m65 -38 c3 -8 -2 -23 -11 -32
-16 -16 -18 -16 -32 2 -18 26 -18 34 4 39 30 8 32 7 39 -9z m53 -53 c15 -29
13 -34 -19 -53 -34 -19 -41 -15 -41 22 0 46 40 67 60 31z"/>
<path d="M503 1870 c20 -76 41 -136 57 -163 28 -45 26 -66 -3 -39 -13 12 -26
22 -29 22 -11 0 4 -40 16 -40 6 0 22 -9 36 -20 36 -28 40 -25 19 16 -10 20
-21 56 -25 80 -4 28 -11 44 -20 44 -8 0 -14 8 -15 18 0 9 -9 35 -20 57 -11 22
-18 33 -16 25z"/>
<path d="M1066 1858 c-23 -37 -30 -71 -15 -66 8 3 15 10 15 16 1 7 2 17 3 22
0 6 10 10 21 10 14 0 22 -11 30 -40 14 -50 22 -52 14 -2 -6 40 -29 82 -44 82
-5 0 -16 -10 -24 -22z"/>
<path d="M1356 1850 c-18 -22 -26 -42 -25 -68 1 -40 3 -38 19 25 9 34 15 42
37 45 23 3 24 5 11 16 -13 11 -20 8 -42 -18z"/>
<path d="M1206 1848 c-7 -13 -16 -39 -19 -58 l-6 -35 16 35 c14 33 29 49 45
50 3 0 11 -15 18 -32 7 -18 14 -28 17 -21 7 18 -27 83 -43 83 -7 0 -20 -10
-28 -22z"/>
<path d="M402 1704 c5 -153 16 -215 50 -295 19 -44 21 -45 60 -42 22 2 49 8
60 14 21 12 52 74 62 127 8 48 -10 30 -23 -22 -12 -48 -68 -103 -94 -93 -7 3
-27 40 -44 83 -31 79 -53 207 -53 311 0 28 -5 55 -11 59 -9 5 -10 -33 -7 -142z"/>
<path d="M2222 1768 c-15 -15 -16 -38 -2 -38 12 0 23 25 18 40 -2 7 -7 7 -16
-2z"/>
<path d="M2916 1719 c3 -35 8 -67 10 -71 3 -4 1 -8 -4 -8 -6 0 -8 -9 -5 -20 3
-11 13 -20 22 -20 10 0 12 3 5 8 -6 4 -10 41 -10 86 1 55 -3 81 -12 84 -9 3
-11 -11 -6 -59z"/>
<path d="M1494 1751 c-10 -10 -3 -20 11 -15 8 4 22 1 29 -5 10 -8 16 -9 21 -1
3 5 1 10 -5 10 -6 0 -9 3 -7 8 5 7 -41 10 -49 3z"/>
<path d="M2261 1703 c-28 -53 -43 -70 -66 -76 -16 -4 -15 -5 5 -6 46 -2 70 10
70 35 0 12 5 35 10 50 16 42 4 40 -19 -3z"/>
<path d="M1521 1671 c-9 -6 -12 -22 -9 -50 2 -22 1 -42 -3 -43 -10 -4 9 -48
21 -48 5 0 10 9 10 21 0 11 -3 18 -8 15 -4 -2 -8 14 -9 37 0 23 4 45 9 48 6 4
9 12 7 18 -3 6 -9 7 -18 2z"/>
<path d="M1972 1655 c-16 -13 -31 -23 -34 -20 -2 2 -22 -14 -43 -37 -26 -26
-32 -37 -18 -29 13 6 27 20 33 32 6 11 14 18 18 15 4 -3 26 11 47 29 22 19 37
34 33 35 -3 0 -20 -11 -36 -25z"/>
<path d="M2473 1645 c0 -22 2 -34 5 -27 2 6 9 12 16 12 7 0 13 7 13 15 0 11
-4 12 -13 4 -9 -8 -14 -4 -17 13 -2 13 -4 5 -4 -17z"/>
<path d="M900 1649 c-8 -14 -18 -19 -32 -15 -13 3 -31 -3 -46 -15 -14 -10 -19
-19 -13 -19 7 0 10 -4 7 -8 -2 -4 -1 -14 4 -22 8 -13 13 -11 32 8 12 12 17 22
11 22 -7 0 -15 -4 -18 -10 -9 -15 -22 -12 -22 5 0 19 40 32 45 16 3 -9 11 -6
26 8 15 14 29 18 45 14 23 -6 23 -7 6 -20 -11 -7 -14 -13 -9 -13 6 0 15 5 22
12 6 6 14 9 18 6 3 -4 -13 -19 -36 -34 -25 -17 -37 -30 -29 -33 7 -2 15 1 17
8 2 6 11 11 20 11 10 0 23 9 30 20 7 11 21 19 33 17 12 -1 24 4 27 12 3 10 0
12 -11 8 -20 -8 -82 10 -101 29 -13 13 -16 12 -26 -7z"/>
<path d="M1961 1603 c-25 -24 -37 -40 -26 -35 11 6 33 24 48 40 23 24 36 29
67 28 21 -1 37 1 34 5 -2 4 -20 7 -41 7 -30 0 -45 -8 -82 -45z"/>
<path d="M1709 1608 c-1 -2 -3 -12 -4 -23 -1 -11 -6 -38 -9 -60 l-7 -40 17 30
c18 31 26 95 12 95 -4 0 -9 -1 -9 -2z"/>
<path d="M1959 1551 c-13 -10 -38 -26 -56 -34 -30 -16 -31 -19 -22 -49 5 -18
9 -48 9 -65 0 -38 1 -38 39 -19 44 23 56 45 56 104 0 48 3 56 23 63 19 7 22 5
20 -9 -2 -12 5 -18 25 -20 15 -2 27 -6 28 -10 0 -4 2 -15 4 -25 2 -13 -1 -17
-11 -13 -9 4 -12 2 -8 -5 5 -8 -4 -10 -29 -7 -20 2 -33 0 -31 -4 3 -4 20 -8
37 -8 39 0 77 -24 77 -48 -1 -9 -7 -34 -14 -54 l-14 -38 29 0 c19 0 29 -5 29
-15 0 -8 -4 -15 -10 -15 -5 0 -7 -7 -4 -15 4 -8 10 -12 15 -9 5 3 9 0 9 -5 0
-6 5 -11 11 -11 7 0 18 -8 26 -17 12 -16 13 -13 7 22 -8 50 -11 54 -39 65 -20
8 -23 15 -23 72 0 74 -23 140 -60 168 -32 25 -92 26 -123 1z m-3 -88 c-2 -25
-8 -37 -20 -39 -14 -2 -15 0 -5 12 9 11 9 18 1 26 -13 13 -4 38 14 38 9 0 13
-11 10 -37z"/>
<path d="M645 1508 c-8 -69 -21 -102 -59 -160 -35 -55 -50 -59 -78 -22 -26 33
-34 24 -14 -15 21 -39 59 -50 87 -25 28 25 45 70 64 162 9 42 18 85 21 95 3 9
1 17 -4 17 -6 0 -13 -24 -17 -52z"/>
<path d="M530 1543 c8 -3 18 -12 23 -19 10 -17 37 -7 30 12 -3 8 -18 14 -37
13 -17 0 -24 -3 -16 -6z"/>
<path d="M2911 1523 c1 -10 0 -22 -1 -28 -2 -5 -3 -29 -4 -52 -2 -62 11 -38
20 35 5 45 3 62 -5 62 -7 0 -11 -8 -10 -17z"/>
<path d="M1745 1512 c-6 -4 -10 -18 -11 -32 -1 -14 -4 -32 -8 -41 -5 -11 1
-19 19 -27 15 -7 25 -20 25 -32 0 -14 -4 -19 -12 -14 -8 5 -7 0 2 -12 24 -30
31 -33 62 -22 22 8 27 15 22 27 -4 9 -9 42 -12 74 -2 31 -8 57 -12 57 -5 0
-17 3 -27 6 -17 5 -17 5 1 -10 14 -11 17 -25 14 -55 -2 -21 0 -37 4 -35 13 8
9 -21 -5 -40 -12 -17 -15 -13 -25 39 -7 32 -12 71 -12 86 0 30 -10 42 -25 31z"/>
<path d="M2140 1507 c0 -14 69 -155 78 -161 6 -4 -7 31 -29 76 -41 83 -49 97
-49 85z"/>
<path d="M7 1461 c-4 -18 -4 -37 -1 -42 6 -11 44 33 44 50 0 18 -20 12 -21 -6
-1 -12 -4 -9 -8 7 -7 24 -7 24 -14 -9z"/>
<path d="M1514 1482 c4 -8 0 -12 -11 -12 -10 0 -14 -4 -8 -8 15 -11 17 -32 4
-48 -8 -10 -8 -14 -1 -14 7 0 16 -15 21 -32 6 -22 10 -26 10 -12 1 11 7 26 14
34 10 12 9 12 -5 2 -21 -17 -27 -1 -18 50 5 23 3 41 -3 45 -6 3 -7 1 -3 -5z"/>
<path d="M2820 1440 c-4 -69 -4 -70 -19 -79 -17 -11 -33 -102 -20 -116 5 -5 9
6 9 28 0 26 4 37 15 37 17 0 19 -13 6 -55 -7 -26 -6 -31 10 -31 21 0 33 34 30
86 -2 24 5 45 20 63 21 27 21 29 3 42 -26 20 -37 18 -29 -2 4 -12 3 -15 -4 -8
-5 6 -11 26 -14 45 -4 33 -4 32 -7 -10z"/>
<path d="M90 1450 c17 -13 27 -15 32 -7 4 6 10 8 14 4 10 -10 -27 -36 -43 -30
-9 4 -11 0 -7 -11 4 -12 2 -15 -9 -10 -20 7 -31 -11 -18 -33 6 -12 5 -20 -6
-28 -10 -8 -12 -19 -7 -39 5 -20 9 -24 15 -15 6 10 10 9 15 -5 6 -16 8 -17 16
-2 10 18 2 39 -12 31 -4 -3 -13 2 -20 10 -10 12 -9 15 6 15 11 0 25 13 34 33
8 17 27 38 42 45 23 11 25 15 15 36 -9 19 -16 22 -29 15 -22 -12 -31 -11 -23
1 3 6 -4 10 -17 10 l-23 0 25 -20z"/>
<path d="M1107 1464 c-3 -3 -3 -12 0 -20 3 -8 0 -14 -7 -14 -10 0 -10 -3 -1
-14 9 -11 9 -15 -1 -19 -10 -3 -8 -10 7 -26 l20 -21 -3 45 c-4 40 -2 45 16 45
12 0 23 4 27 9 8 15 -15 25 -28 12 -14 -14 -30 -15 -22 -1 7 11 2 14 -8 4z"/>
<path d="M2940 1450 c-1 -14 -3 -34 -5 -45 -2 -10 2 -26 8 -34 9 -12 9 -13 0
-7 -7 4 -13 3 -13 -1 0 -5 -13 -17 -30 -26 -29 -18 -41 -47 -19 -47 6 0 9 7 5
15 -3 9 0 15 8 15 11 0 12 -7 3 -35 -6 -21 -16 -34 -23 -31 -11 4 -15 -8 -30
-74 -1 -8 -5 -35 -8 -60 -6 -45 -6 -45 10 10 8 30 18 67 21 83 6 28 35 38 49
15 5 -7 2 -9 -9 -5 -17 6 -27 -11 -27 -49 0 -18 6 -24 23 -25 12 0 16 -3 10
-6 -7 -2 -13 -12 -13 -21 0 -14 2 -15 10 -2 5 8 12 11 16 8 3 -4 13 -1 20 7
17 17 18 26 2 22 -9 -1 -13 12 -14 40 0 24 -4 46 -7 50 -4 3 -7 17 -7 31 0 20
3 22 14 13 22 -18 30 -69 14 -88 -10 -13 -10 -15 0 -9 7 4 19 3 26 -3 18 -15
-6 77 -30 119 -20 33 -13 50 11 30 9 -7 18 -10 22 -6 3 3 1 6 -5 6 -7 0 -12 6
-12 13 1 6 10 1 20 -12 18 -21 20 -22 20 -4 0 11 -11 30 -25 43 -13 12 -22 26
-20 30 2 4 0 20 -5 36 -8 28 -8 28 -10 4z"/>
<path d="M1391 1440 c-1 -14 7 -36 16 -49 9 -14 11 -21 5 -17 -6 3 -13 2 -16
-3 -7 -11 22 -23 35 -15 5 3 9 2 8 -3 -1 -4 1 -16 6 -26 4 -9 5 -26 2 -37 -6
-25 2 -26 19 -2 22 29 16 62 -19 97 -18 18 -38 44 -44 57 l-12 23 0 -25z"/>
<path d="M320 1437 c0 -30 30 -236 42 -286 8 -35 18 -56 29 -58 9 -3 22 -16
29 -29 26 -47 23 -13 -3 38 -29 59 -59 165 -77 276 -11 65 -20 93 -20 59z"/>
<path d="M764 1418 c-4 -18 -7 -36 -6 -40 1 -5 -2 -8 -8 -8 -5 0 -7 -6 -4 -14
3 -8 0 -17 -5 -21 -6 -3 -9 -10 -6 -15 3 -5 1 -27 -4 -47 -6 -21 -11 -41 -11
-46 0 -4 -7 -23 -15 -43 -8 -20 -15 -46 -15 -58 0 -12 -6 -28 -12 -35 -11 -10
-10 -12 2 -9 15 3 16 -4 5 -34 -4 -11 -3 -18 5 -18 13 0 10 -51 -3 -61 -5 -4
-6 -101 -2 -217 l8 -210 23 8 c14 6 26 5 29 0 4 -6 2 -10 -4 -10 -6 0 -8 -7
-5 -15 4 -8 1 -15 -5 -15 -6 0 -11 -5 -11 -11 0 -5 5 -7 10 -4 6 4 10 -8 10
-28 0 -25 -6 -37 -24 -46 -27 -15 -41 -60 -20 -68 7 -2 10 -11 8 -18 -6 -16
15 -23 191 -65 72 -18 136 -37 143 -42 6 -6 12 -7 12 -3 0 5 8 1 18 -7 13 -12
32 -15 77 -11 74 6 68 -2 -16 -22 l-64 -15 60 6 c33 4 83 8 110 10 28 2 64 8
80 14 25 8 21 9 -32 7 -33 -1 -59 1 -57 5 3 4 -5 10 -18 13 -104 23 -166 38
-243 61 -49 14 -124 35 -165 46 -41 11 -81 24 -87 30 -20 16 -5 28 32 28 l34
0 -4 83 c-7 137 -5 125 -14 102 -12 -29 -18 22 -31 240 -6 99 -12 204 -14 232
-3 37 5 92 29 185 41 166 50 218 37 218 -6 0 -14 -15 -18 -32z"/>
<path d="M1027 1429 c-7 -28 14 -85 26 -72 7 6 11 -19 8 -44 -2 -19 40 -123
50 -123 13 0 11 7 -6 33 -9 15 -13 41 -11 80 2 31 1 57 -3 57 -18 1 -44 33
-50 62 l-7 33 -7 -26z"/>
<path d="M1296 1405 c2 -41 1 -45 -17 -40 -11 4 -19 2 -19 -5 0 -6 5 -8 10 -5
6 3 10 -3 10 -13 0 -11 9 -30 20 -43 l20 -24 -6 32 c-9 46 3 82 31 95 14 6 25
15 25 20 0 5 -5 6 -10 3 -6 -4 -22 0 -35 9 -13 9 -26 16 -28 16 -3 0 -3 -20
-1 -45z"/>
<path d="M2747 1443 c-4 -3 -7 -16 -7 -28 0 -17 6 -22 25 -22 14 0 28 3 31 8
3 5 -6 9 -19 9 -20 0 -24 4 -20 20 5 20 2 25 -10 13z"/>
<path d="M175 1408 c-4 -18 -8 -37 -9 -43 -1 -5 -12 -12 -25 -13 -16 -3 -20
-7 -12 -11 8 -5 9 -15 2 -33 -5 -13 -7 -41 -4 -61 4 -29 1 -37 -11 -37 -9 0
-16 -5 -16 -11 0 -5 5 -7 10 -4 8 5 15 -21 12 -46 -2 -9 40 1 55 13 7 5 16 7
21 4 10 -6 10 4 -2 79 -5 28 -15 61 -23 74 -11 17 -12 26 -3 35 31 30 80 -132
51 -168 -8 -9 -8 -17 -2 -20 12 -8 8 -33 -10 -54 -8 -10 -15 -35 -16 -57 -2
-22 -10 -45 -18 -51 -25 -19 -17 -26 25 -22 41 4 41 4 34 -27 -9 -43 -11 -45
-47 -45 l-32 0 22 -18 c32 -25 72 -165 42 -146 -6 3 -17 20 -25 38 -10 24 -13
26 -14 10 0 -11 3 -24 8 -28 4 -4 7 -37 7 -72 l1 -65 -31 4 c-30 3 -30 4 -30
63 1 75 10 116 30 126 19 11 20 34 2 41 -31 12 -38 -10 -44 -124 -3 -63 -10
-119 -15 -126 -7 -9 8 -11 64 -6 78 6 97 14 81 35 -11 14 -8 343 3 371 8 22
-6 43 -17 26 -7 -11 -9 -10 -9 3 0 9 4 18 8 20 5 2 12 16 16 32 6 24 5 28 -10
22 -16 -6 -17 -5 -2 11 11 13 14 32 11 68 -6 69 -5 75 2 122 7 40 5 44 -32 83
l-40 41 -8 -33z m5 -121 c0 -21 -12 -28 -27 -16 -19 16 -16 29 7 29 11 0 20
-6 20 -13z"/>
<path d="M2665 1420 c-3 -5 5 -21 19 -35 26 -26 33 -51 17 -57 -13 -4 11 -71
27 -76 10 -3 9 4 -3 28 -12 23 -14 35 -6 43 17 17 12 59 -8 85 -21 24 -36 28
-46 12z"/>
<path d="M297 1300 c4 -117 27 -343 39 -382 3 -10 9 -18 13 -18 17 0 19 13 6
37 -14 27 -10 57 7 47 5 -3 7 -13 3 -23 -5 -12 -3 -13 6 -4 9 9 7 31 -9 95
-19 75 -36 164 -60 318 -7 42 -8 25 -5 -70z"/>
<path d="M25 1391 c-3 -10 -4 -25 -3 -32 2 -8 -3 -13 -9 -11 -8 1 -13 -8 -13
-23 0 -14 3 -25 8 -25 11 0 34 58 27 70 -4 6 -1 17 5 25 8 10 9 15 2 15 -6 0
-13 -9 -17 -19z"/>
<path d="M1145 1391 c-3 -2 -5 -17 -5 -33 0 -15 -4 -28 -9 -28 -5 0 -11 -9
-14 -20 -3 -11 -2 -20 1 -20 10 0 32 51 32 73 0 11 4 15 11 11 6 -3 15 0 20 7
6 11 9 9 9 -8 0 -12 -7 -29 -16 -38 -15 -15 -15 -23 -4 -73 7 -31 19 -66 26
-77 16 -23 19 -3 3 26 -5 11 -9 30 -6 42 3 18 5 16 14 -13 8 -26 11 -29 12
-12 1 12 5 22 10 22 5 0 7 9 4 20 -3 11 0 20 6 20 6 0 11 -5 11 -11 0 -5 4 -8
9 -5 12 8 22 -35 12 -48 -5 -6 -11 -20 -13 -31 -5 -18 -6 -18 -16 5 -10 22
-11 19 -11 -27 -1 -29 -5 -53 -11 -53 -5 0 -10 9 -10 20 0 11 -4 20 -8 20 -11
0 -3 -58 9 -65 4 -3 16 9 24 27 9 18 29 44 45 58 15 14 31 37 34 52 5 23 2 30
-23 43 -17 8 -35 23 -40 32 -9 16 -12 16 -21 3 -5 -8 -10 -26 -11 -40 -2 -25
-2 -25 -6 -2 -3 16 -10 22 -19 18 -18 -7 -31 21 -16 36 8 8 15 8 25 -1 12 -9
16 -8 21 4 3 9 10 13 16 10 17 -11 11 11 -11 39 -15 19 -28 26 -50 24 -17 -1
-32 -4 -34 -7z"/>
<path d="M2761 1368 c0 -9 -6 -18 -13 -20 -7 -3 -9 -11 -4 -24 8 -18 9 -17 17
5 6 14 8 32 6 40 -4 14 -5 13 -6 -1z"/>
<path d="M1343 1343 c-16 -6 -17 -43 -2 -43 6 0 9 7 5 15 -3 8 -1 15 5 15 6 0
8 -16 4 -44 -4 -24 -3 -52 3 -61 9 -16 11 -16 31 4 24 24 28 15 6 -16 -16 -22
-42 -22 -57 1 -4 6 -10 2 -13 -9 -22 -67 -38 -95 -51 -84 -9 8 -15 5 -23 -9
-6 -11 -8 -22 -4 -25 11 -11 -18 -36 -35 -30 -14 4 -14 3 -3 -5 12 -8 12 -14
3 -25 -10 -12 -6 -14 25 -13 37 1 38 2 41 44 2 29 7 40 15 36 7 -4 9 -4 5 1
-8 8 25 80 42 90 5 3 10 -1 10 -9 0 -9 6 -16 13 -16 8 0 7 -3 -3 -10 -26 -16
-6 -19 30 -3 19 8 29 17 22 20 -6 3 -10 9 -6 14 8 13 24 11 22 -3 -2 -7 3 -12
10 -10 6 1 12 -5 12 -14 0 -11 5 -14 16 -10 12 5 11 0 -4 -22 -11 -15 -25 -46
-31 -70 -10 -36 -15 -42 -32 -37 -13 4 -19 2 -19 -9 0 -17 11 -19 59 -10 21 4
31 12 31 24 0 10 9 47 20 82 19 61 19 64 1 88 -10 14 -21 36 -26 48 -4 13 -9
21 -11 19 -3 -3 2 -22 10 -42 18 -43 19 -45 8 -45 -14 0 -42 58 -42 88 0 18
-11 43 -26 61 -25 30 -36 35 -61 24z m63 -65 c3 -21 -7 -23 -24 -6 -17 17 -15
30 5 26 9 -2 17 -11 19 -20z"/>
<path d="M620 1282 c-14 -26 -30 -53 -37 -60 -7 -7 -13 -19 -13 -26 0 -6 -18
-31 -40 -55 -22 -23 -40 -45 -40 -47 0 -2 9 -4 20 -4 27 0 71 63 110 156 36
87 36 105 0 36z"/>
<path d="M978 1321 c16 -10 7 -54 -14 -72 -8 -6 -14 -17 -14 -24 0 -26 -43
-126 -50 -115 -10 15 -44 -26 -37 -45 4 -9 1 -15 -9 -15 -8 0 -21 -15 -29 -32
-13 -29 -14 -30 -15 -9 0 24 24 70 70 131 27 36 29 70 5 70 -19 0 -30 21 -15
30 8 5 8 10 2 14 -18 11 -23 -26 -7 -50 20 -31 19 -37 -5 -29 -13 4 -31 0 -45
-9 -22 -15 -25 -24 -25 -79 0 -34 -5 -69 -10 -77 -8 -13 -10 -12 -10 4 0 11
-3 17 -6 13 -4 -3 -3 -14 1 -24 4 -10 7 -40 6 -68 -1 -27 3 -57 9 -65 7 -11 8
-7 6 17 -3 20 0 33 9 37 8 3 15 0 17 -5 2 -6 21 -9 43 -7 28 3 35 6 23 11 -40
16 -53 20 -60 19 -12 -3 -9 17 8 49 12 24 19 29 37 23 39 -12 42 -10 41 34 -1
38 8 54 19 35 2 -5 2 -2 1 4 -2 7 6 41 18 75 11 35 23 70 25 78 5 13 6 13 12
0 8 -19 41 -22 41 -4 0 8 4 14 10 14 25 0 -13 -52 -48 -66 -1 -1 -5 -11 -7
-24 -4 -19 -1 -21 18 -17 75 20 80 20 72 7 -6 -10 -4 -12 9 -7 10 4 21 7 24 7
4 0 1 4 -7 9 -8 5 -16 15 -17 23 -8 42 -35 113 -50 129 -9 10 -27 19 -38 19
-15 0 -17 -3 -8 -9z m-138 -180 c0 -19 -28 -56 -36 -48 -6 6 20 67 28 67 4 0
8 -9 8 -19z"/>
<path d="M1705 1314 l-40 -12 47 -1 c26 -1 49 3 52 8 10 16 -18 18 -59 5z"/>
<path d="M770 1243 c0 -13 5 -23 11 -23 6 0 9 -9 6 -19 -3 -13 0 -18 12 -16 9
2 23 4 31 4 9 1 5 6 -10 14 -13 7 -30 24 -37 37 -13 25 -13 25 -13 3z"/>
<path d="M65 1240 c3 -4 -5 -21 -18 -37 -43 -51 -63 -113 -37 -113 5 0 7 6 4
13 -3 8 2 19 10 26 13 11 14 8 9 -26 -3 -21 -12 -43 -19 -49 -8 -6 -14 -16
-14 -22 0 -13 39 -27 48 -17 4 4 7 40 7 80 0 57 4 77 16 87 9 7 19 24 21 39 3
19 0 25 -14 26 -10 1 -16 -2 -13 -7z"/>
<path d="M903 1213 c10 -32 27 -45 27 -20 0 6 3 22 6 33 5 18 2 22 -18 20 -23
-1 -24 -3 -15 -33z"/>
<path d="M1487 1233 c11 -31 31 -55 37 -45 3 5 -1 15 -9 22 -8 7 -15 19 -15
26 0 8 -4 14 -10 14 -5 0 -7 -8 -3 -17z"/>
<path d="M2157 1198 c14 -7 23 -22 26 -42 3 -25 4 -23 5 12 2 40 1 42 -25 41
-27 0 -27 -1 -6 -11z"/>
<path d="M1106 1181 c-19 -7 -19 -8 -1 -15 17 -6 16 -9 -10 -36 -15 -16 -32
-27 -36 -24 -9 5 -5 -43 4 -53 4 -3 7 -11 7 -17 0 -6 -5 -4 -10 4 -9 13 -10
13 -11 0 -1 -8 -1 -18 0 -22 0 -3 -11 -5 -24 -3 -19 2 -25 -2 -25 -17 0 -15 6
-18 28 -14 15 2 35 5 45 5 16 1 18 8 14 49 -3 28 1 58 10 75 16 33 27 36 20 5
-6 -23 -6 -23 9 -3 14 18 16 18 27 4 11 -14 12 -54 4 -161 -1 -15 -8 -30 -16
-33 -10 -4 -12 1 -7 19 4 15 0 28 -9 36 -24 20 -28 6 -11 -34 l15 -37 -54 2
c-44 2 -55 6 -55 19 0 10 -18 37 -40 62 -21 25 -36 48 -32 52 3 4 -2 4 -11 0
-10 -4 -16 -12 -14 -18 3 -7 -1 -23 -9 -37 -8 -15 -14 -18 -14 -9 0 12 -2 12
-10 -2 -7 -11 -6 -26 2 -45 15 -36 15 -38 17 -70 2 -41 12 -20 16 32 1 26 8
51 15 55 9 5 9 9 1 14 -17 11 -13 38 5 34 9 -2 24 -22 33 -46 9 -23 19 -40 23
-37 9 9 30 -23 50 -78 14 -40 17 -45 15 -20 -2 18 0 30 5 27 11 -7 10 3 -3 28
-9 17 -8 19 8 16 10 -2 17 -10 15 -18 -3 -11 -1 -11 13 0 14 12 16 11 10 -13
-4 -14 -2 -34 4 -44 9 -14 10 -11 5 17 -4 29 -3 32 6 17 7 -11 12 -35 12 -54
0 -24 3 -31 8 -22 10 15 2 69 -11 84 -13 14 -11 27 4 19 10 -6 10 -4 0 7 -17
17 -16 29 1 29 7 0 19 7 26 15 11 14 14 13 26 -3 16 -23 64 -21 78 2 9 13 12
12 24 -2 13 -16 13 -16 8 0 -3 10 1 23 8 30 11 11 11 16 -1 26 -7 7 -13 22
-13 34 0 19 3 18 30 -12 17 -19 28 -40 25 -48 -2 -7 6 -24 20 -38 15 -15 25
-36 25 -52 -1 -23 -2 -24 -11 -10 -20 35 -36 8 -45 -75 -6 -69 -9 -77 -14 -47
l-7 35 -2 -37 c-1 -29 3 -38 20 -43 30 -10 44 10 62 85 8 36 24 98 36 137 12
40 21 75 21 78 0 11 -37 -30 -43 -48 -10 -27 -29 -16 -42 24 -14 41 -81 144
-74 114 1 -6 -2 -29 -6 -52 -6 -34 -12 -43 -27 -43 -17 0 -20 -5 -16 -31 4
-28 3 -30 -21 -24 -35 9 -38 15 -39 101 -2 66 -5 80 -32 120 -17 24 -32 44
-33 43 -1 0 -11 -4 -21 -8z"/>
<path d="M1722 1138 c-16 -21 -64 -226 -57 -247 3 -11 8 -30 10 -42 3 -12 9
-27 15 -33 7 -7 10 -7 9 -1 -1 6 1 22 5 37 5 16 3 35 -5 50 -10 20 -10 21 2
11 12 -9 14 0 15 60 0 40 5 96 11 125 11 56 11 58 -5 40z"/>
<path d="M2794 1115 c-4 -8 -12 -15 -20 -15 -16 0 -18 -14 -4 -40 8 -15 6 -17
-13 -13 -18 5 -16 0 13 -25 19 -17 40 -31 46 -32 18 0 23 11 14 29 -9 17 -25
90 -22 104 3 13 -9 7 -14 -8z"/>
<path d="M535 1051 c-47 -73 -77 -101 -107 -101 -19 0 -21 -13 -10 -43 7 -16
11 -14 38 15 30 32 67 85 113 161 39 64 14 40 -34 -32z"/>
<path d="M2987 1103 c-4 -3 -7 -15 -7 -25 0 -16 -10 -22 -31 -20 -3 1 -6 -6
-6 -13 0 -12 3 -12 16 -2 10 8 13 9 8 0 -4 -6 -3 -14 2 -17 5 -3 13 13 19 36
11 43 11 53 -1 41z"/>
<path d="M1368 1085 c22 -10 32 -22 32 -37 0 -15 3 -19 10 -12 12 12 1 48 -15
50 -5 1 -21 4 -35 8 -18 4 -16 2 8 -9z"/>
<path d="M2946 1085 c-11 -8 -28 -15 -38 -15 -12 0 -24 -14 -34 -37 -9 -21
-21 -46 -26 -57 -7 -13 -5 -23 6 -34 20 -21 28 -12 28 35 0 22 3 31 7 21 4
-12 11 -14 20 -9 11 7 11 14 -2 40 -8 17 -12 30 -9 29 17 -3 61 15 66 28 7 17
6 17 -18 -1z"/>
<path d="M160 1070 c0 -5 -10 -10 -22 -11 -22 -1 -22 -1 2 -8 14 -5 28 -6 33
-4 11 6 9 33 -3 33 -5 0 -10 -4 -10 -10z"/>
<path d="M2575 1053 c-11 -3 -28 -15 -37 -26 -13 -16 -18 -18 -18 -7 0 13 -2
13 -9 1 -9 -14 6 -61 19 -61 4 0 10 9 13 21 4 16 3 18 -9 8 -9 -7 -14 -8 -14
-1 0 14 46 46 85 60 31 11 10 14 -30 5z"/>
<path d="M80 1037 c0 -9 -13 -29 -30 -45 -33 -33 -36 -42 -19 -59 14 -14 49
-5 49 13 0 7 -6 11 -14 8 -8 -3 -17 -1 -21 5 -3 7 2 11 14 11 14 0 19 5 16 20
-2 11 0 22 5 25 17 11 50 -19 50 -45 0 -14 9 -31 20 -38 17 -10 20 -10 20 2 0
8 -4 18 -10 21 -5 3 -10 14 -11 23 -1 22 -69 80 -69 59z"/>
<path d="M2622 1010 c-37 -35 -29 -66 26 -100 26 -16 54 -30 63 -30 23 0 42
26 36 50 -3 12 -1 18 5 14 6 -4 9 -1 6 7 -4 14 -93 79 -107 79 -4 0 -17 -9
-29 -20z m96 -34 c8 -9 -19 -36 -35 -36 -13 0 -13 3 -2 18 13 16 13 16 -7 0
-20 -18 -46 -23 -56 -12 -11 10 4 43 21 47 16 3 70 -8 79 -17z"/>
<path d="M2486 985 c6 -37 22 -70 30 -62 2 2 -5 25 -16 53 l-20 49 6 -40z"/>
<path d="M2989 1015 c-1 -3 -2 -9 -3 -14 -2 -19 -16 -23 -31 -11 -13 11 -14
10 -9 -4 3 -9 17 -16 30 -16 19 0 24 5 24 25 0 22 -8 35 -11 20z"/>
<path d="M2068 955 c-3 -11 -6 -37 -7 -57 l-2 -38 42 0 c23 0 39 3 35 7 -4 4
-19 7 -33 8 -22 0 -27 5 -28 28 -1 16 4 31 11 34 8 3 14 9 14 15 0 5 -4 7 -9
4 -5 -4 -11 0 -14 6 -2 8 -6 5 -9 -7z"/>
<path d="M2930 961 c0 -6 -8 -11 -17 -11 -13 0 -14 -3 -6 -11 7 -7 9 -25 6
-40 -4 -19 -1 -29 6 -29 8 0 10 8 6 20 -5 15 -3 18 9 14 12 -5 16 1 16 24 0
17 -4 34 -10 37 -5 3 -10 1 -10 -4z"/>
<path d="M291 895 c-1 -32 3 -55 9 -55 12 0 14 97 2 104 -5 3 -10 -19 -11 -49z"/>
<path d="M72 896 c3 -14 1 -29 -3 -32 -5 -3 -8 -38 -8 -77 l2 -72 8 74 c5 41
14 78 21 83 10 6 10 8 -1 8 -7 0 -11 6 -8 15 4 8 1 17 -5 21 -7 5 -9 -2 -6
-20z"/>
<path d="M371 906 c-17 -20 -4 -45 20 -39 13 4 18 11 15 20 -3 8 -6 19 -6 24
0 13 -16 11 -29 -5z"/>
<path d="M459 868 c-27 -33 -32 -43 -15 -28 29 25 71 80 63 80 -3 0 -24 -24
-48 -52z"/>
<path d="M2763 895 l-28 -24 32 2 c24 2 33 7 36 25 5 28 -5 28 -40 -3z"/>
<path d="M1921 850 c-2 -36 -5 -78 -7 -94 -2 -19 0 -26 7 -19 6 6 8 47 6 94
-3 83 -3 83 -6 19z"/>
<path d="M2481 872 c13 -21 60 -52 79 -52 6 0 9 4 5 9 -3 5 3 11 12 13 15 3
14 5 -5 10 -12 3 -20 2 -16 -3 10 -16 -11 -9 -49 17 -32 21 -36 22 -26 6z"/>
<path d="M979 873 c-1 -5 -4 -52 -8 -106 l-6 -97 58 0 c31 0 57 1 57 3 0 2
-11 30 -25 63 -14 32 -23 46 -19 29 12 -54 10 -60 -18 -63 -21 -3 -28 1 -29
15 -1 21 4 78 10 118 1 6 9 -1 17 -15 9 -14 13 -17 10 -7 -4 11 -9 30 -12 43
-6 22 -33 35 -35 17z"/>
<path d="M2865 870 c-4 -7 -21 -19 -39 -26 l-31 -15 30 6 c32 7 63 30 53 40
-3 4 -9 1 -13 -5z"/>
<path d="M864 815 c-9 -31 -17 -64 -16 -73 2 -42 -8 -60 -40 -68 l-33 -8 44
-4 c23 -2 44 -2 46 0 4 4 24 202 20 206 -1 2 -11 -22 -21 -53z"/>
<path d="M1287 863 c-3 -4 -11 -37 -17 -73 -15 -75 -24 -90 -54 -88 -11 0 -29
-3 -38 -7 -11 -4 -18 -3 -18 5 0 7 -8 9 -20 5 -12 -4 -28 -1 -36 6 -14 11 -15
10 -12 -11 3 -24 5 -25 88 -22 100 4 120 8 120 28 0 17 -16 19 -23 2 -10 -24
-6 16 7 87 13 67 14 86 3 68z"/>
<path d="M2430 865 c0 -9 75 -55 89 -55 8 0 -6 14 -32 30 -48 30 -57 34 -57
25z"/>
<path d="M2862 829 c-32 -17 -33 -17 -13 -31 20 -14 20 -15 1 -28 -10 -7 -17
-17 -14 -22 3 -4 1 -8 -3 -8 -5 0 -10 -19 -11 -42 -2 -32 0 -39 8 -28 5 8 10
27 10 42 0 15 5 30 11 34 10 6 52 95 47 98 -2 1 -18 -6 -36 -15z"/>
<path d="M622 754 c-1 -50 -4 -120 -7 -155 -4 -58 -4 -60 5 -24 6 22 9 91 7
155 -3 111 -3 112 -5 24z"/>
<path d="M2610 830 c23 -15 139 -50 164 -49 14 0 7 5 -19 14 l-40 14 55 -4 55
-4 -45 9 c-25 5 -52 7 -61 5 -9 -3 -36 1 -60 10 -50 17 -71 19 -49 5z"/>
<path d="M2938 822 c-16 -3 -18 -17 -18 -112 0 -62 -4 -111 -10 -115 -5 -3
-10 -1 -10 5 0 7 -5 6 -14 -2 -8 -7 -12 -15 -11 -17 7 -7 125 11 125 20 0 5
-3 8 -7 8 -5 -1 -21 -1 -36 0 l-29 1 4 93 c2 67 7 95 18 104 18 14 12 21 -12
15z"/>
<path d="M296 801 c-4 -5 -2 -20 3 -33 10 -24 11 -23 27 30 4 14 -22 17 -30 3z"/>
<path d="M915 768 c-8 -28 -12 -109 -5 -101 5 4 10 32 12 61 3 51 1 64 -7 40z"/>
<path d="M2480 740 c6 -11 16 -20 24 -20 7 0 22 -21 34 -47 12 -29 19 -37 15
-20 -9 47 14 30 46 -33 35 -69 183 -271 231 -315 18 -16 -11 27 -63 96 -53 69
-112 155 -132 191 l-35 66 24 0 c16 0 29 -10 40 -32 9 -17 14 -23 11 -13 -3
10 -5 26 -5 36 0 12 -14 20 -56 29 -31 6 -62 9 -68 5 -6 -4 -5 1 3 10 11 14
11 18 -5 23 -11 4 -27 15 -37 26 -24 25 -41 24 -27 -2z"/>
<path d="M1419 737 c6 -8 8 -16 5 -20 -3 -3 6 -4 20 -3 15 2 29 -1 33 -7 3 -6
1 -7 -5 -3 -8 4 -12 0 -12 -10 0 -24 22 -3 27 25 2 14 -5 20 -28 25 -46 9 -53
8 -40 -7z"/>
<path d="M2591 736 c25 -15 149 -40 157 -31 2 2 -13 6 -34 10 -35 5 -85 17
-133 31 -9 3 -4 -2 10 -10z"/>
<path d="M316 726 c3 -9 1 -16 -5 -16 -6 0 -11 -4 -11 -9 0 -5 11 -8 25 -8 20
0 23 2 15 18 -13 23 -32 35 -24 15z"/>
<path d="M1560 713 c-20 -19 -21 -22 -6 -17 13 5 17 4 12 -4 -5 -8 -2 -10 9
-6 10 4 27 -3 42 -17 14 -13 23 -18 19 -11 -12 21 5 35 20 15 12 -17 13 -17
14 -1 0 12 5 15 16 11 11 -4 12 -8 4 -13 -8 -5 -5 -9 9 -13 11 -2 22 -2 25 1
9 8 7 32 -1 30 -8 -1 -20 3 -68 22 -72 28 -69 28 -95 3z"/>
<path d="M2441 625 c1 -63 1 -117 -2 -119 -7 -6 -122 -15 -116 -9 3 3 30 9 59
13 45 8 41 8 -27 4 -92 -5 -257 -22 -297 -30 -26 -5 -27 -7 -21 -55 l6 -49
-49 1 c-45 2 -46 2 -14 8 31 5 35 10 35 36 0 26 -4 30 -29 33 -23 3 -26 6 -15
13 9 7 -4 8 -41 5 -41 -4 -50 -3 -35 4 15 8 9 9 -25 5 -42 -5 -82 0 -175 24
-27 7 -42 7 -46 -1 -4 -7 -8 -7 -10 1 -3 7 -20 14 -39 17 -19 2 -53 7 -75 10
-22 3 -62 8 -90 11 -27 2 -66 8 -85 13 -19 5 -64 14 -100 19 -36 6 -74 13 -86
16 -19 6 -21 2 -22 -43 -1 -60 -32 -49 278 -97 129 -21 242 -39 250 -40 8 -2
24 -4 35 -5 17 -2 16 -3 -5 -10 -21 -6 -19 -8 15 -7 22 0 109 -8 193 -18 152
-18 229 -15 331 12 16 4 22 2 18 -4 -4 -6 2 -13 12 -16 13 -3 45 14 94 49 42
30 84 54 95 54 45 0 52 8 37 49 -7 21 -16 76 -20 124 -5 60 -12 87 -22 91 -12
5 -14 -13 -12 -109z m-1245 -82 c7 -10 14 -13 14 -6 0 7 15 10 42 7 38 -4 67
-14 39 -14 -7 0 -9 -4 -6 -10 3 -5 1 -10 -4 -10 -6 0 -11 5 -11 10 0 7 -6 7
-20 0 -16 -9 -20 -8 -20 6 0 12 -4 14 -12 6 -15 -11 -42 -2 -45 16 -4 17 8 15
23 -5z m174 -16 c0 3 6 1 13 -4 6 -6 33 -9 60 -8 26 1 47 -1 47 -6 0 -4 19 -8
43 -7 61 0 69 -1 63 -11 -3 -5 1 -12 10 -15 8 -3 12 -10 9 -16 -4 -6 -12 -7
-24 -1 -10 6 -26 10 -37 10 -36 -1 -91 8 -105 17 -8 5 -23 9 -34 10 -100 4
-101 4 -101 23 0 15 5 17 28 10 15 -4 28 -5 28 -2z m276 -45 c3 3 21 2 40 -2
23 -5 34 -4 34 4 0 6 5 3 11 -7 6 -10 9 -28 6 -40 -3 -22 -4 -22 -15 3 -6 14
-11 20 -11 13 -1 -18 -41 -11 -42 7 0 10 -2 11 -6 3 -7 -18 -24 -16 -39 5 -18
23 -17 37 1 22 9 -7 18 -10 21 -8z m706 -22 c-39 -37 -71 -48 -167 -60 -72 -9
-100 -9 -103 -1 -2 6 -8 9 -13 5 -5 -3 -9 2 -9 10 0 22 34 37 93 41 29 2 52 4
52 5 0 1 13 4 30 6 16 3 32 7 34 10 3 3 27 4 53 3 45 -2 47 -4 30 -19z m-540
-5 c15 0 17 -13 3 -25 -11 -9 -15 -9 -15 -1 0 7 -4 9 -10 6 -17 -11 -32 5 -19
21 6 7 16 11 23 7 6 -4 14 -8 18 -8z m82 -17 c11 10 66 10 60 0 -3 -5 6 -7 20
-4 21 4 26 1 26 -16 0 -18 -2 -19 -17 -7 -14 12 -16 12 -8 0 6 -11 4 -13 -11
-6 -10 4 -27 7 -37 7 -9 0 -15 3 -13 7 3 4 -18 6 -47 5 l-52 -3 25 20 c22 18
25 19 36 5 6 -9 14 -12 18 -8z"/>
<path d="M2855 690 c-4 -28 -5 -53 -2 -56 2 -3 7 19 11 47 4 28 5 53 3 56 -3
2 -8 -19 -12 -47z"/>
<path d="M2506 680 c10 -60 64 -166 105 -206 41 -40 53 -36 18 6 -51 64 -85
120 -106 175 -16 42 -22 49 -17 25z"/>
<path d="M1521 663 c-20 -13 -31 -14 -63 -6 -30 8 -38 7 -38 -3 0 -7 6 -15 13
-17 6 -2 -1 -3 -16 -1 -16 2 -38 -1 -50 -7 -20 -11 -20 -12 -2 -25 20 -15 135
-20 135 -6 0 5 15 16 34 25 28 13 40 14 65 4 24 -9 33 -8 43 1 11 11 10 12 -3
7 -8 -3 -26 3 -39 15 -26 23 -35 26 -24 8 5 -8 2 -9 -10 -5 -10 4 -20 7 -22 7
-3 0 -2 5 1 10 9 14 3 13 -24 -7z"/>
<path d="M1772 668 c5 -14 -14 -38 -30 -38 -6 0 -13 -6 -15 -12 -4 -9 -8 -10
-14 -3 -4 6 -21 8 -38 4 -16 -4 -24 -7 -17 -8 7 0 11 -5 8 -10 -3 -4 -39 -7
-81 -5 -58 3 -75 1 -75 -9 0 -11 37 -16 167 -21 92 -4 170 -11 173 -17 4 -5
38 -11 76 -14 66 -4 67 -4 16 4 -29 5 -56 12 -59 15 -8 8 83 -3 122 -15 51
-15 329 -4 319 13 -4 5 -36 8 -75 6 -38 -2 -69 0 -69 4 0 5 -16 8 -37 8 -46 0
-39 8 11 12 20 1 40 6 42 10 7 10 -21 10 -68 -1 -24 -6 -40 -5 -47 2 -8 8 -11
8 -11 0 0 -16 -265 -12 -282 5 -6 6 -21 12 -32 13 -14 0 -9 4 14 13 19 7 40
10 45 7 6 -3 16 -6 23 -7 21 -4 -6 24 -41 42 -23 12 -28 13 -25 2z"/>
<path d="M56 646 c-3 -14 -10 -25 -14 -25 -21 3 -42 -2 -42 -11 0 -5 13 -10
29 -10 24 0 29 5 35 32 7 38 1 49 -8 14z"/>
<path d="M2701 633 c55 -99 91 -152 114 -167 14 -9 25 -12 25 -6 0 5 -4 10 -9
10 -13 0 -75 95 -101 153 -12 26 -27 47 -35 47 -12 0 -10 -8 6 -37z"/>
<path d="M2742 663 c-9 -4 -6 -14 13 -38 14 -19 25 -37 25 -42 1 -11 39 -60
40 -50 0 5 -16 33 -36 63 -19 29 -33 58 -29 64 7 11 6 11 -13 3z"/>
<path d="M924 652 c-16 -2 -20 -8 -17 -23 4 -14 0 -19 -16 -19 -12 0 -20 -3
-17 -8 2 -4 -14 -6 -37 -4 -34 2 -39 1 -24 -8 9 -6 39 -10 65 -8 45 3 47 4 44
31 l-3 27 78 1 c43 0 87 4 98 9 19 9 -121 11 -171 2z"/>
<path d="M938 566 c-4 -33 -2 -36 27 -42 16 -3 59 -6 95 -7 l65 -2 3 31 c4 36
-2 39 -114 50 l-72 6 -4 -36z m102 8 c0 6 7 3 14 -6 7 -10 21 -18 30 -18 9 0
16 -7 16 -15 0 -9 -9 -15 -22 -14 -22 0 -22 1 -3 9 13 6 0 8 -40 5 -44 -3 -51
-2 -25 4 l35 7 -37 8 c-21 5 -38 12 -38 16 0 4 16 4 35 0 24 -5 35 -4 35 4z"/>
<path d="M2670 586 c0 -18 36 -72 116 -172 47 -60 89 -111 92 -114 3 -3 -8 19
-24 49 -15 29 -45 67 -65 85 -20 17 -55 60 -78 95 -22 35 -41 61 -41 57z"/>
<path d="M2920 540 c-13 -9 -13 -12 3 -21 10 -6 32 -25 48 -41 26 -28 29 -29
29 -10 0 11 -7 28 -16 36 -14 15 -14 17 0 22 9 3 16 10 16 15 0 12 -61 11 -80
-1z"/>
<path d="M122 531 c-9 -5 -2 -10 25 -14 52 -9 73 -9 73 1 0 5 -6 9 -12 9 -7 0
-26 3 -43 6 -16 4 -36 3 -43 -2z"/>
<path d="M698 529 c-10 -5 -18 -19 -18 -31 0 -17 2 -18 15 -8 9 7 13 15 10 18
-3 3 0 11 6 19 13 15 10 16 -13 2z"/>
<path d="M625 499 c-16 -5 -57 -13 -90 -19 -33 -5 -85 -13 -116 -19 -32 -5
-72 -6 -93 -1 -21 4 -34 4 -30 -1 3 -5 0 -9 -6 -9 -6 0 -10 -10 -8 -22 2 -15
10 -23 23 -23 11 1 19 6 18 13 -2 7 2 12 7 12 15 0 12 -16 -5 -30 -8 -7 -15
-9 -15 -5 0 4 -8 1 -17 -6 -14 -12 -16 -12 -8 0 5 10 4 12 -3 7 -22 -13 -12
-26 17 -24 16 1 28 5 25 9 -2 4 8 17 22 28 26 20 28 21 53 4 21 -13 24 -14 13
-1 -10 13 -10 17 3 22 8 3 15 1 15 -4 0 -6 8 -5 19 2 11 7 17 17 13 23 -3 5 2
4 11 -4 18 -15 23 -26 7 -16 -16 10 -12 -1 6 -15 8 -8 14 -9 13 -4 -6 33 3 54
22 54 11 0 17 -4 14 -10 -4 -6 10 -9 34 -7 23 1 41 5 41 10 0 4 8 7 18 7 13 0
14 2 4 9 -11 6 -9 9 7 14 11 2 22 0 25 -7 2 -6 5 -3 5 7 1 19 -1 19 -44 6z"/>
<path d="M790 481 c0 -5 4 -12 9 -15 5 -3 7 -14 4 -24 -3 -14 4 -21 35 -30 65
-20 132 -26 132 -13 0 6 -7 14 -15 17 -8 4 -15 10 -15 16 0 5 5 6 10 3 6 -3
10 1 10 9 0 16 -40 29 -122 41 -30 4 -48 2 -48 -4z m114 -43 c-7 -12 -62 -10
-69 2 -4 7 8 10 34 9 22 -2 38 -6 35 -11z"/>
<path d="M975 470 c-3 -5 -3 -30 1 -55 5 -36 10 -45 26 -45 22 0 360 -63 438
-81 25 -6 61 -13 80 -15 19 -3 49 -9 65 -14 17 -5 73 -14 126 -20 53 -5 104
-12 113 -16 38 -15 10 -24 -71 -24 -49 0 -107 -5 -131 -10 -24 -6 -98 -17
-165 -25 -67 -8 -145 -19 -173 -25 -29 -6 -99 -17 -155 -24 -93 -13 -144 -22
-144 -26 0 -1 -25 -3 -55 -5 -73 -5 -210 -23 -290 -40 -36 -7 -117 -19 -180
-27 l-115 -13 115 -3 c79 -2 155 3 245 17 312 49 473 74 670 101 116 17 285
42 377 56 145 22 174 24 225 14 199 -40 191 -41 228 21 17 27 37 64 47 80 20
37 34 51 24 25 -7 -19 -6 -19 14 -1 22 20 27 30 9 19 -6 -3 -14 -2 -18 5 -7
11 -155 2 -276 -17 -53 -8 -52 -5 -38 -74 4 -21 1 -28 -11 -28 -9 0 -16 5 -16
12 0 9 -3 9 -12 0 -14 -14 -32 -16 -23 -2 3 5 -7 9 -22 9 -39 -1 -67 4 -74 14
-4 5 -24 11 -45 14 -22 3 -45 10 -53 17 -12 8 -13 8 -7 -1 10 -17 -4 -16 -28
2 -10 8 -23 12 -29 8 -6 -3 -7 -1 -3 6 8 13 74 12 82 -1 3 -5 10 -6 15 -2 5 3
22 -1 38 -9 25 -12 29 -12 24 -1 -8 20 3 17 28 -8 12 -13 19 -18 16 -12 -13
22 22 23 49 1 16 -12 25 -16 21 -10 -4 6 -3 14 3 18 5 3 10 -2 11 -12 0 -16 1
-16 8 2 5 11 4 22 0 23 -5 2 -7 7 -5 11 3 4 -12 6 -32 4 -33 -2 -34 -1 -12 7
19 7 12 9 -30 5 -40 -3 -49 -2 -35 5 15 7 9 8 -22 4 -24 -3 -43 -2 -43 3 0 4
-19 9 -43 9 -23 1 -71 9 -107 18 -64 17 -96 23 -155 31 -16 2 -73 11 -125 20
-52 10 -106 19 -120 20 -30 4 -66 10 -139 27 -31 6 -58 12 -61 13 -3 0 -10 4
-17 8 -6 4 -14 3 -18 -3z m140 -66 c7 2 16 -2 19 -9 4 -10 -3 -14 -24 -12 -17
1 -30 6 -30 10 0 5 -4 6 -8 3 -5 -3 -9 1 -9 9 0 11 5 12 19 4 11 -6 26 -8 33
-5z m175 -28 c14 -1 31 -5 39 -10 10 -6 12 -5 7 2 -4 7 -1 12 8 12 9 0 16 -8
17 -17 0 -11 3 -13 6 -5 2 6 10 9 16 5 7 -4 23 -8 37 -8 14 -1 36 -5 50 -10
33 -11 54 -12 61 -2 4 5 9 -3 11 -18 4 -21 2 -25 -11 -19 -9 3 -32 7 -52 9
-20 1 -41 5 -46 8 -8 5 -104 19 -140 20 -7 0 -10 4 -7 8 2 5 -10 6 -28 4 -19
-2 -42 2 -56 11 -12 8 -27 12 -32 9 -5 -3 -12 0 -16 6 -5 9 8 10 52 4 32 -4
70 -8 84 -9z m334 -62 c8 -32 2 -41 -18 -25 -11 10 -14 26 -7 49 4 12 20 -3
25 -24z m576 -31 c0 -29 -38 -51 -102 -58 -81 -9 -111 -4 -114 17 -3 26 21 40
84 47 89 11 132 9 132 -6z m-40 -80 c-8 -3 -20 -10 -26 -14 -7 -6 -16 -3 -24
6 -11 13 -7 15 26 14 22 0 32 -3 24 -6z"/>
<path d="M0 411 c0 -11 14 -28 33 -40 17 -11 28 -21 23 -21 -14 0 26 -40 40
-40 8 0 21 -12 31 -27 10 -16 23 -32 30 -36 16 -10 17 -49 2 -64 -7 -7 -2 -10
18 -9 21 1 28 -4 28 -17 0 -10 6 -21 13 -26 7 -4 10 -15 6 -24 -4 -12 1 -20
19 -26 16 -6 30 -24 38 -45 8 -23 19 -36 31 -36 24 0 23 10 -7 42 -14 15 -25
31 -25 36 0 5 -11 19 -24 31 -14 13 -22 29 -20 36 3 7 1 16 -5 20 -6 3 -11 14
-11 23 0 12 8 17 30 17 17 0 30 -4 30 -8 0 -5 5 -5 10 -2 18 11 -1 26 -28 24
-37 -4 -69 9 -76 29 -8 25 -28 53 -55 77 l-25 22 67 7 c37 4 69 12 72 17 3 5
-7 7 -22 4 -95 -15 -122 -14 -145 3 -12 10 -35 26 -50 35 -27 17 -28 17 -28
-2z"/>
<path d="M2866 401 c-17 -7 -17 -9 7 -37 l26 -29 1 25 c0 35 -12 48 -34 41z"/>
<path d="M2468 376 c33 -43 26 -54 -11 -18 -20 19 -43 32 -57 31 -14 0 -19 -3
-10 -6 39 -12 60 -28 60 -44 0 -9 9 -19 20 -22 11 -3 20 -14 20 -24 0 -27 11
-35 27 -21 11 9 15 7 20 -10 3 -12 9 -22 13 -22 4 0 10 -19 14 -42 4 -23 12
-46 19 -50 6 -4 16 -22 22 -39 8 -24 13 -28 17 -17 4 8 1 27 -7 41 -7 14 -18
42 -25 64 -14 45 -88 159 -121 188 l-23 20 22 -29z"/>
<path d="M270 351 c0 -17 21 -21 60 -12 29 7 30 9 10 10 -14 1 -35 4 -47 7
-14 4 -23 2 -23 -5z"/>
<path d="M2938 342 c-3 -11 -1 -25 6 -32 8 -8 7 -13 -3 -19 -11 -7 -11 -12 0
-29 8 -12 19 -24 26 -27 16 -5 7 66 -12 104 -12 23 -12 23 -17 3z"/>
<path d="M2690 342 c0 -5 16 -23 35 -42 19 -19 47 -51 61 -71 27 -39 63 -64
45 -31 -13 23 -141 154 -141 144z"/>
<path d="M2360 312 c0 -11 -9 -27 -20 -37 -11 -10 -20 -24 -20 -31 0 -7 -11
-21 -25 -32 l-25 -20 23 -6 c23 -6 56 25 57 53 0 8 6 11 15 7 12 -4 15 3 13
39 -3 43 -18 65 -18 27z"/>
<path d="M2426 321 c-7 -10 19 -71 30 -71 8 0 -6 63 -16 73 -4 5 -11 4 -14 -2z"/>
<path d="M207 313 c-20 -2 -35 -8 -32 -14 9 -14 39 -11 61 6 10 8 17 14 14 13
-3 -1 -22 -3 -43 -5z"/>
<path d="M280 312 c6 -2 8 -7 6 -11 -3 -4 46 -19 107 -34 230 -55 333 -79 351
-83 11 -2 23 -9 27 -15 5 -8 27 -10 71 -6 l63 6 -40 -14 -40 -14 70 1 c78 0
108 5 100 18 -3 4 -23 6 -45 3 -38 -5 -57 9 -27 20 6 3 -12 5 -40 4 -29 -2
-53 0 -53 3 0 4 -23 7 -52 9 -29 1 -57 6 -63 11 -5 4 -23 11 -40 14 -16 3 -50
10 -75 16 -25 6 -61 15 -80 19 -19 5 -28 9 -20 10 13 1 13 2 0 11 -8 5 -17 5
-20 1 -3 -5 -11 -2 -18 5 -13 15 -13 16 25 26 7 2 -39 3 -102 3 -63 0 -110 -2
-105 -3z"/>
<path d="M2395 273 c4 -21 11 -60 16 -86 5 -26 9 -65 9 -85 0 -43 8 -56 33
-58 21 -2 20 6 -20 164 -25 98 -50 142 -38 65z"/>
<path d="M2665 285 c10 -16 25 -42 33 -57 20 -41 25 -34 7 10 -9 20 -25 46
-37 57 l-21 20 18 -30z"/>
<path d="M227 283 c-18 -5 -18 -5 0 -19 25 -18 60 -19 44 -1 -6 8 -8 17 -4 20
7 8 -12 7 -40 0z"/>
<path d="M290 261 c0 -4 20 -12 45 -18 25 -6 45 -7 45 -3 0 7 -13 11 -77 25
-7 2 -13 0 -13 -4z"/>
<path d="M2828 243 c11 -16 39 -46 63 -68 l42 -40 -23 35 c-29 44 -81 100 -93
100 -4 0 1 -12 11 -27z"/>
<path d="M1291 251 c-9 -6 0 -10 28 -13 44 -4 56 6 19 16 -29 7 -30 7 -47 -3z"/>
<path d="M1410 227 c-36 -6 -56 -12 -45 -14 11 -2 56 3 100 11 44 7 64 14 45
14 -19 -1 -64 -5 -100 -11z"/>
<path d="M379 194 c-13 -7 -47 -18 -76 -25 -64 -15 -61 -26 7 -28 28 0 61 -7
73 -16 l21 -15 -21 0 c-12 0 -25 4 -28 10 -6 10 -65 -14 -65 -27 0 -6 133 4
163 13 9 3 15 9 12 14 -3 5 -1 11 5 15 5 3 10 -2 10 -12 0 -10 4 -14 8 -8 4 6
23 11 42 12 19 1 73 8 120 16 l85 14 -58 4 c-31 2 -57 0 -57 -5 0 -5 -8 -2
-17 5 -11 10 -14 10 -9 2 5 -9 -1 -13 -23 -13 -16 0 -33 5 -36 10 -3 6 -12 10
-18 10 -7 0 -4 -5 6 -11 9 -6 15 -15 11 -20 -4 -6 -11 -6 -19 1 -8 6 -31 10
-52 8 -30 -2 -37 -7 -35 -20 3 -18 -13 -26 -20 -10 -1 4 -19 15 -38 24 l-35
17 32 7 c18 3 32 9 31 13 -2 18 3 24 11 12 5 -8 11 -9 15 -3 10 17 -18 21 -45
6z"/>
<path d="M2365 200 c-3 -5 -4 -14 -1 -19 9 -14 -22 -21 -50 -11 -31 12 -64 13
-64 2 0 -4 27 -14 60 -20 49 -10 60 -16 60 -32 0 -11 5 -20 10 -20 14 0 13 47
-2 52 -7 3 -8 9 -3 19 13 19 15 39 5 39 -5 0 -12 -4 -15 -10z"/>
<path d="M2856 141 c-5 -7 8 -32 30 -59 21 -26 39 -49 41 -51 2 -2 5 -2 8 1 3
3 -5 18 -18 34 -13 16 -31 42 -39 58 -10 19 -18 25 -22 17z"/>
<path d="M643 118 c-2 -5 -22 -8 -43 -8 -21 0 -41 -4 -44 -9 -7 -10 46 -5 144
15 l65 13 -58 -2 c-33 -1 -61 -5 -64 -9z"/>
<path d="M2250 107 c-26 -21 -23 -46 5 -57 34 -13 33 -14 33 15 0 14 -4 25 -9
25 -5 0 -6 7 -3 15 7 18 -5 19 -26 2z"/>
<path d="M1490 98 c0 -4 11 -8 25 -8 14 0 25 -4 25 -10 0 -5 7 -10 16 -10 8 0
13 -3 11 -7 -3 -5 8 -9 24 -10 17 -1 27 2 24 7 -4 6 2 10 11 10 11 0 14 3 9 9
-13 13 -145 30 -145 19z"/>
<path d="M2075 95 c-268 -50 -407 -67 -417 -51 -7 10 -12 1 -9 -16 0 -5 -8 -8
-18 -8 -11 0 -22 -4 -25 -9 -3 -4 21 -8 53 -7 33 1 57 5 54 10 -3 4 4 5 15 2
12 -4 41 0 64 8 24 8 107 24 183 35 159 24 185 30 185 42 0 10 5 11 -85 -6z"/>
<path d="M425 84 c-115 -18 -138 -25 -55 -17 101 9 128 13 152 23 30 12 11 11
-97 -6z"/>
<path d="M2177 43 c-4 -3 -7 -14 -7 -23 0 -12 12 -16 61 -17 l61 -2 -25 19
c-15 12 -32 17 -46 13 -13 -3 -26 -1 -30 6 -4 6 -10 8 -14 4z"/>
<path d="M1830 10 c-25 -5 -10 -7 50 -7 57 0 75 2 55 7 -37 9 -60 9 -105 0z"/>
</g>
</svg>
